<?xml version="1.0" encoding="UTF-8" standalone="no"?>
<!DOCTYPE svg PUBLIC "-//W3C//DTD SVG 1.1//EN" "http://www.w3.org/Graphics/SVG/1.1/DTD/svg11.dtd">
<svg width="100%" height="100%" viewBox="0 0 1067 1067" version="1.1" xmlns="http://www.w3.org/2000/svg" xmlns:xlink="http://www.w3.org/1999/xlink" xml:space="preserve" xmlns:serif="http://www.serif.com/" style="fill-rule:evenodd;clip-rule:evenodd;stroke-linejoin:round;stroke-miterlimit:2;">
    <g transform="matrix(1,0,0,1,-1200,-3600)">
        <g id="Page-20" serif:id="Page 20" transform="matrix(8.33333,0,0,8.33333,1200,3600)">
            <rect x="0" y="0" width="128" height="128" style="fill:none;"/>
            <g transform="matrix(0.12,0,0,0.12,-144,-432)">
                <g id="Warstwa-1" serif:id="Warstwa 1">
                    <path d="M1592.81,4570.51L1991.98,4570.51C2023.96,4570.51 2045.44,4542.74 2044.1,4510.79C2040.97,4435.8 2032.96,4367.52 2019.22,4306.28C2005.38,4244.65 1968.94,4191.18 1909.71,4183.17C1899.98,4181.85 1890.09,4183.93 1881.25,4188.21C1854.51,4201.19 1778.83,4232.04 1707.64,4191.73C1690.4,4181.97 1686.17,4182.13 1678.5,4182.13C1655.56,4182.13 1634.79,4191.43 1617.29,4207.08C1591.77,4229.9 1573.2,4266.37 1565.12,4306.39C1551.64,4373.2 1543.38,4435.86 1540.73,4510.55C1539.59,4542.61 1560.72,4570.51 1592.81,4570.51ZM1592.81,4560.09C1566.77,4560.09 1550.22,4536.94 1551.14,4510.92C1553.77,4436.85 1561.97,4374.7 1575.34,4308.45C1582.93,4270.77 1600.21,4236.33 1624.23,4214.84C1639.77,4200.96 1658.13,4192.55 1678.5,4192.55C1684.84,4192.55 1688.24,4192.72 1702.51,4200.79C1777.66,4243.35 1857.57,4211.29 1885.8,4197.59C1892.79,4194.2 1900.6,4192.45 1908.31,4193.49C1963.29,4200.93 1996.21,4251.35 2009.06,4308.56C2022.67,4369.25 2030.59,4436.91 2033.69,4511.23C2034.78,4537.12 2017.9,4560.09 1991.98,4560.09C1991.98,4560.09 1592.81,4560.09 1592.81,4560.09ZM1729.82,4398.26C1744.41,4398.26 1756.37,4386.32 1756.37,4371.71C1756.37,4371.71 1756.37,4349.43 1756.37,4349.43C1756.37,4334.82 1744.41,4322.88 1729.82,4322.88L1664.22,4322.88C1649.62,4322.88 1637.68,4334.82 1637.68,4349.43L1637.68,4371.71C1637.68,4386.32 1649.62,4398.26 1664.22,4398.26C1664.22,4398.26 1729.82,4398.26 1729.82,4398.26ZM1729.82,4387.84L1664.22,4387.84C1655.35,4387.84 1648.09,4380.58 1648.09,4371.71C1648.09,4371.71 1648.09,4349.43 1648.09,4349.43C1648.09,4340.55 1655.35,4333.29 1664.22,4333.29C1664.22,4333.29 1729.82,4333.29 1729.82,4333.29C1738.69,4333.29 1745.95,4340.55 1745.95,4349.43L1745.95,4371.71C1745.95,4380.59 1738.69,4387.84 1729.82,4387.84ZM2043.46,4136.24C2024.51,4121.16 2013,4100.6 2013,4078.03C2013,4032.45 2060.68,3994.74 2120.24,3994.74C2179.8,3994.74 2227.49,4032.45 2227.49,4078.03C2227.49,4123.61 2179.8,4161.33 2120.24,4161.33C2105.58,4161.33 2091.62,4159.05 2078.92,4154.94C2076.95,4154.3 2073.48,4154.72 2069.57,4155.29C2058.49,4156.92 2044.59,4161.11 2044.59,4161.11L2034.35,4164.19L2038.24,4154.23C2038.24,4154.23 2041.28,4146.44 2042.81,4140.12C2043.12,4138.84 2043.34,4137.22 2043.46,4136.24ZM2051.22,4148.5C2056.25,4147.23 2062.49,4145.8 2068.06,4144.98C2073.93,4144.12 2079.16,4144.07 2082.13,4145.03C2093.84,4148.82 2106.72,4150.91 2120.24,4150.91C2173.4,4150.91 2217.07,4118.71 2217.07,4078.03C2217.07,4037.36 2173.4,4005.16 2120.24,4005.16C2067.08,4005.16 2023.41,4037.36 2023.41,4078.03C2023.41,4098.01 2034.14,4116.02 2051.26,4129.11C2052.75,4130.26 2054.24,4132.93 2053.92,4136.92C2053.68,4139.98 2052.48,4144.46 2051.22,4148.5ZM1663.88,3802.24C1678.08,3767.54 1710.69,3743.09 1749.28,3732.51C1808.15,3716.38 1880.7,3732.62 1921.03,3793.12C1987.26,3892.47 1986.84,4024.98 1942.68,4091.22C1921.44,4123.08 1877.94,4140.63 1827.43,4146.84C1753.19,4155.98 1663.9,4140.99 1611.21,4114.64L1603.68,4110.87L1610.42,4105.82C1638.09,4085.05 1647.18,4059.68 1650.17,4045.39C1639.94,4051.21 1622.69,4057.17 1601.06,4049.97L1593.07,4047.3L1599.03,4041.34C1619.68,4020.69 1629.56,3989.65 1619.33,3938.14C1601.41,3888.65 1605.5,3857.11 1616.32,3837.09C1630.09,3811.62 1655.1,3804.14 1663.88,3802.24ZM1810.17,4138.08C1815.56,4137.68 1820.9,4137.15 1826.15,4136.51C1873.26,4130.71 1914.2,4115.15 1934.01,4085.44C1976.47,4021.75 1976.04,3894.42 1912.36,3798.89C1874.73,3742.45 1806.96,3727.51 1752.03,3742.56C1715.75,3752.5 1684.97,3775.53 1672.55,3808.66L1671.45,3811.61L1668.32,3812C1668.32,3812 1639.77,3815.61 1625.48,3842.05C1615.54,3860.44 1612.69,3889.41 1629.26,3934.97L1629.48,3935.73C1639.73,3987.01 1631,4019.61 1612.4,4042.11C1637.14,4046.35 1653.16,4030.51 1653.16,4030.51L1662.05,4021.62L1662.05,4034.2C1662.05,4034.2 1662.25,4075.4 1623.28,4108.84C1664.66,4127.5 1725.26,4139.37 1782.99,4139.13C1728.25,4135.41 1700.65,4090.6 1687.99,4036.45C1668.61,3953.61 1684.17,3849.37 1684.17,3849.37L1687.73,3825.6L1694.33,3848.71C1711.34,3908.24 1770.81,3911.12 1790.53,3910.38L1778.21,3873.4L1921.53,3933.13L1921.87,3936.18C1921.87,3936.18 1927.39,3985.85 1914.31,4035.83C1902.05,4082.72 1873.61,4129.72 1810.17,4138.08ZM1692.08,3871.1C1688.68,3904.9 1684.32,3975.04 1698.13,4034.08C1710.32,4086.2 1736.62,4129.91 1792.3,4128.95C1862.29,4127.74 1891.93,4080.22 1904.24,4033.19C1914.94,3992.27 1912.7,3951.58 1911.79,3940.36L1795.32,3891.82L1804.54,3919.48L1798.24,3920.26C1798.24,3920.26 1722.88,3929.5 1692.08,3871.1ZM1425,3955.7L1300.99,3955.7C1264.76,3955.7 1235.12,3926.06 1235.12,3889.83C1235.12,3889.83 1235.12,3773.95 1235.12,3773.95C1235.12,3737.72 1264.76,3708.08 1300.99,3708.08C1300.99,3708.08 1489.85,3708.08 1489.85,3708.08C1526.08,3708.08 1555.73,3737.72 1555.73,3773.95C1555.73,3773.95 1555.73,3889.83 1555.73,3889.83C1555.73,3926.06 1526.08,3955.7 1489.85,3955.7L1480.95,3955.7L1484.29,3991.28L1425,3955.7ZM1471.99,3971.75L1469.51,3945.29L1489.85,3945.29C1520.35,3945.29 1545.31,3920.33 1545.31,3889.83L1545.31,3773.95C1545.31,3743.45 1520.35,3718.5 1489.85,3718.5L1300.99,3718.5C1270.49,3718.5 1245.54,3743.45 1245.54,3773.95L1245.54,3889.83C1245.54,3920.33 1270.49,3945.29 1300.99,3945.29L1427.89,3945.29L1471.99,3971.75Z" style="fill:white;"/>
                </g>
            </g>
        </g>
    </g>
</svg>
