<?xml version="1.0" encoding="UTF-8" standalone="no"?>
<!DOCTYPE svg PUBLIC "-//W3C//DTD SVG 1.1//EN" "http://www.w3.org/Graphics/SVG/1.1/DTD/svg11.dtd">
<svg width="100%" height="100%" viewBox="0 0 1067 1067" version="1.1" xmlns="http://www.w3.org/2000/svg" xmlns:xlink="http://www.w3.org/1999/xlink" xml:space="preserve" xmlns:serif="http://www.serif.com/" style="fill-rule:evenodd;clip-rule:evenodd;stroke-linejoin:round;stroke-miterlimit:2;">
    <g transform="matrix(1,0,0,1,-1200,0)">
        <g id="Page-2" serif:id="Page 2" transform="matrix(8.33333,0,0,8.33333,1200,0)">
            <rect x="0" y="0" width="128" height="128" style="fill:none;"/>
            <g transform="matrix(0.12,0,0,0.12,-144,0)">
                <g id="Warstwa-1" serif:id="Warstwa 1">
                    <path d="M1775.29,116.967C1777.59,110.106 1780.65,103.507 1784.72,97.279C1815.99,49.364 1893.38,50.349 1924.72,97.981C1939.9,121.057 1936.77,146.125 1936.77,172.159L1936.77,233.793L2025.8,233.793C2040.47,233.793 2052.79,244.888 2054.36,259.444C2054.36,259.448 2054.36,259.451 2054.36,259.455C2054.36,259.455 2105.7,745.905 2105.7,745.945C2106.67,755.798 2103.2,764.916 2096.99,771.545L2039.83,857.364C2037.98,862.342 2034.97,866.924 2031,870.555L2030.75,870.797C2024.58,876.396 2016.45,879.863 2007.46,879.863L1633.57,879.863C1626.1,890.978 1618.09,901.514 1609.98,911.331C1577.14,950.636 1541.58,979.1 1522.61,993.013L1630.23,993.013C1633.11,993.013 1635.44,995.347 1635.44,998.222C1635.44,1001.1 1633.11,1003.43 1630.23,1003.43L1506.5,1003.43C1506.19,1003.46 1505.89,1003.46 1505.58,1003.43L1385.45,1003.43C1382.58,1003.43 1380.24,1001.1 1380.24,998.222C1380.24,995.347 1382.58,993.013 1385.45,993.013L1489.58,993.013C1470.62,978.997 1434.85,950.234 1401.87,910.769C1362.88,864.415 1327.82,803.346 1327.82,734.15C1327.82,636.089 1407.26,556.65 1505.22,556.65C1511.06,556.65 1516.9,556.941 1522.63,557.527L1541.34,318.398C1542.29,305.744 1550.45,295.27 1561.59,290.789C1583.36,278.956 1633.74,252.913 1657.24,240.796C1664.56,237.026 1672.51,234.735 1680.68,234.029C1680.41,224.861 1680.28,215.584 1680.77,206.432C1681.8,187.043 1685.6,168.216 1696.23,151.93C1713.61,125.298 1745.24,113.773 1775.29,116.967ZM1626.54,871.628C1652.48,832.716 1672.22,786.047 1672.22,734.15C1672.22,649.178 1608.83,579.013 1526.74,568.508L1526.69,568.502C1519.7,567.542 1512.46,567.067 1505.22,567.067C1413.01,567.067 1338.23,641.845 1338.23,734.15C1338.23,800.77 1372.3,859.435 1409.85,904.077C1450.11,952.248 1494.59,984.122 1506.06,991.976C1517.51,984.207 1561.83,952.721 1601.97,904.675C1610.35,894.521 1618.66,883.553 1626.34,871.937C1626.4,871.832 1626.47,871.729 1626.54,871.628ZM1842.84,298.863L1573.71,298.863C1571,298.863 1568.39,299.356 1565.97,300.26C1563.72,301.484 1561.81,302.543 1560.29,303.404C1555.48,307.084 1552.21,312.709 1551.72,319.178C1551.72,319.184 1551.72,319.189 1551.72,319.195L1532.97,558.874L1528.06,558.175C1615.28,569.337 1682.64,643.872 1682.64,734.15C1682.64,784.723 1664.78,830.574 1640.36,869.447L2007.46,869.447C2013.73,869.447 2019.39,867.016 2023.71,863.124L2023.92,862.92C2026.77,860.325 2028.9,857.013 2030.21,853.351C2030.22,853.305 2030.24,853.259 2030.25,853.213C2031.34,850.252 2031.8,847.11 2031.62,843.811C2031.6,843.412 2031.57,843.011 2031.53,842.607L2024.54,777.068L2004.65,588.446L1975.97,316.899C1975.02,307.355 1967.46,299.97 1958.1,298.974C1957.4,298.901 1956.7,298.863 1955.98,298.863L1843.3,298.863C1843.23,298.867 1843.15,298.868 1843.07,298.868C1842.99,298.868 1842.92,298.867 1842.84,298.863ZM1505.22,629.575L1505.22,629.575C1511.1,629.575 1516.89,630.092 1522.5,631.036C1572.27,639.244 1610.29,682.455 1610.29,734.558C1610.29,744.708 1608.85,754.522 1606.15,763.807C1593.55,807.25 1553.59,839.115 1506.18,839.541L1506.15,839.542L1505.22,839.542C1447.25,839.542 1400.24,792.535 1400.24,734.558C1400.24,676.582 1447.25,629.575 1505.22,629.575ZM1931.84,244.21C1931.75,244.215 1931.66,244.218 1931.56,244.218C1931.47,244.217 1931.38,244.215 1931.28,244.21L1848.28,244.21L1848.28,288.443L1955.94,288.443C1957.05,288.443 1958.14,288.502 1959.22,288.617C1973.41,290.113 1984.89,301.328 1986.37,315.859L2015.03,587.557L2034.92,775.976L2041.34,836.31L2088.39,765.656L2088.62,765.326C2088.78,765.09 2088.96,764.868 2089.16,764.661C2093.54,760.119 2096.01,753.799 2095.34,746.998C2095.34,746.998 2044,260.548 2044,260.559C2043.73,258.033 2042.95,255.67 2041.77,253.57L1994.15,290.045C1991.87,291.793 1988.6,291.359 1986.85,289.077C1985.1,286.795 1985.53,283.523 1987.82,281.775L2034.19,246.251C2031.67,244.945 2028.81,244.21 2025.8,244.21L1931.84,244.21ZM1505.22,639.992C1453,639.992 1410.66,682.335 1410.66,734.558C1410.66,786.782 1453,829.125 1505.22,829.125L1505.67,829.125C1505.77,829.125 1505.87,829.125 1505.97,829.125L1506.08,829.125C1547.59,828.752 1582.78,801.619 1595.14,764.163C1598.21,754.846 1599.87,744.895 1599.87,734.558C1599.87,687.629 1565.63,648.706 1520.78,641.311C1515.72,640.458 1510.51,639.992 1505.22,639.992ZM1798.12,647.27L1771.01,672.388C1769.49,673.795 1767.29,674.169 1765.39,673.341C1763.49,672.512 1762.26,670.638 1762.26,668.568L1762.26,528.959C1762.26,526.883 1763.5,525.006 1765.4,524.18C1767.31,523.355 1769.52,523.739 1771.03,525.158L1875.03,622.6C1876.58,624.048 1877.09,626.289 1876.34,628.267C1875.58,630.244 1873.69,631.566 1871.58,631.608L1832.59,632.392L1854.05,680.391C1854.64,681.697 1854.66,683.185 1854.11,684.506C1853.57,685.828 1852.5,686.867 1851.16,687.38L1826.49,696.855C1823.93,697.837 1821.05,696.67 1819.9,694.185L1798.12,647.27ZM1858.57,621.451L1772.68,540.976L1772.68,656.641L1796.29,634.764C1797.51,633.632 1799.2,633.152 1800.84,633.474C1802.47,633.796 1803.85,634.88 1804.56,636.391L1827.3,685.386L1842.3,679.626L1819.87,629.469C1819.15,627.874 1819.29,626.029 1820.22,624.554C1821.16,623.078 1822.77,622.17 1824.52,622.135L1858.57,621.451ZM1720.94,583.385L1743.73,560.877C1745.77,558.857 1745.79,555.556 1743.77,553.511C1741.75,551.466 1738.45,551.445 1736.41,553.465L1713.62,575.973C1711.57,577.993 1711.55,581.294 1713.57,583.339C1715.59,585.384 1718.89,585.405 1720.94,583.385ZM1696.08,534.542L1728.12,534.742C1730.99,534.76 1733.34,532.44 1733.36,529.566C1733.37,526.691 1731.06,524.343 1728.18,524.325L1696.15,524.125C1693.27,524.107 1690.92,526.426 1690.91,529.301C1690.89,532.175 1693.21,534.524 1696.08,534.542ZM1838.86,523.381L1806.83,523.181C1803.95,523.163 1801.6,525.482 1801.59,528.357C1801.57,531.231 1803.89,533.579 1806.76,533.597L1838.79,533.797C1841.67,533.815 1844.02,531.496 1844.04,528.622C1844.05,525.747 1841.73,523.399 1838.86,523.381ZM1713.05,482.427L1735.56,505.219C1737.58,507.264 1740.88,507.285 1742.92,505.265C1744.97,503.245 1744.99,499.945 1742.97,497.899L1720.46,475.108C1718.44,473.062 1715.14,473.042 1713.09,475.062C1711.05,477.082 1711.03,480.382 1713.05,482.427ZM1814.01,474.538L1791.22,497.046C1789.17,499.066 1789.15,502.366 1791.17,504.411C1793.19,506.457 1796.49,506.477 1798.54,504.457L1821.33,481.949C1823.37,479.929 1823.39,476.629 1821.37,474.584C1819.35,472.538 1816.05,472.518 1814.01,474.538ZM1761.89,457.574L1761.7,489.607C1761.68,492.482 1764,494.829 1766.88,494.847C1769.75,494.864 1772.1,492.544 1772.12,489.669L1772.31,457.636C1772.32,454.762 1770,452.414 1767.13,452.397C1764.26,452.38 1761.91,454.699 1761.89,457.574ZM1681.01,244.459C1674.39,245.104 1667.95,246.996 1662.01,250.056C1644.61,259.025 1612.43,275.656 1588.13,288.447L1644.32,288.447C1644.38,288.444 1644.44,288.443 1644.5,288.443L1681.86,288.443C1681.59,287.81 1681.44,287.111 1681.44,286.377L1681.43,270.718C1681.42,270.588 1681.42,270.45 1681.41,270.305C1681.4,269.922 1681.39,267.761 1681.38,261.689C1681.37,256.072 1681.2,250.308 1681.01,244.459ZM1691.43,288.443L1837.86,288.443L1837.86,244.21L1691.41,244.21C1691.61,250.137 1691.78,255.977 1691.8,261.664L1691.81,266.534L1691.84,266.768C1691.84,266.787 1691.85,266.926 1691.85,267.207C1691.85,267.803 1691.85,272.089 1691.85,286.377C1691.85,287.111 1691.7,287.81 1691.43,288.443ZM1772.52,126.921C1746.71,124.678 1719.85,134.793 1704.95,157.622C1695.34,172.354 1692.1,189.444 1691.17,206.984C1690.7,215.876 1690.82,224.886 1691.08,233.793L1770.36,233.793C1770.08,233.159 1769.93,232.46 1769.93,231.726L1769.93,216.1C1769.91,215.964 1769.91,215.821 1769.9,215.671C1769.89,215.286 1769.88,213.122 1769.86,207.038C1769.82,189.413 1768.27,170.342 1769.25,151.78C1769.7,143.333 1770.68,134.991 1772.52,126.921ZM1782.83,128.492C1781.01,136.216 1780.09,144.227 1779.65,152.334C1778.68,170.701 1780.24,189.572 1780.28,207.012L1780.3,211.836L1780.32,212.063C1780.33,212.083 1780.34,212.239 1780.34,212.553C1780.35,213.149 1780.35,217.436 1780.35,231.726C1780.35,232.46 1780.19,233.159 1779.92,233.793L1837.86,233.793L1837.86,226.81C1837.86,202.827 1841.51,179.614 1827.53,158.356C1817.03,142.397 1800.62,132.401 1782.83,128.492ZM1926.36,233.793L1926.36,172.159C1926.36,148.176 1930,124.962 1916.02,103.705C1888.58,62.003 1820.82,61.021 1793.44,102.972C1790.18,107.963 1787.66,113.225 1785.71,118.684C1805.82,123.203 1824.34,134.56 1836.23,152.631C1851.41,175.707 1848.28,200.776 1848.28,226.81L1848.28,233.793L1926.36,233.793Z" style="fill:url(#_Linear1);"/>
                </g>
            </g>
        </g>
    </g>
    <defs>
        <linearGradient id="_Linear1" x1="0" y1="0" x2="1" y2="0" gradientUnits="userSpaceOnUse" gradientTransform="matrix(-774.449,839.097,-839.097,-774.449,2112.68,152.879)"><stop offset="0" style="stop-color:rgb(82,191,218);stop-opacity:1"/><stop offset="1" style="stop-color:rgb(95,128,191);stop-opacity:1"/></linearGradient>
    </defs>
</svg>
