<?xml version="1.0" encoding="UTF-8" standalone="no"?>
<!DOCTYPE svg PUBLIC "-//W3C//DTD SVG 1.1//EN" "http://www.w3.org/Graphics/SVG/1.1/DTD/svg11.dtd">
<svg width="100%" height="100%" viewBox="0 0 1067 1067" version="1.1" xmlns="http://www.w3.org/2000/svg" xmlns:xlink="http://www.w3.org/1999/xlink" xml:space="preserve" xmlns:serif="http://www.serif.com/" style="fill-rule:evenodd;clip-rule:evenodd;stroke-linejoin:round;stroke-miterlimit:2;">
    <g transform="matrix(1,0,0,1,-4800,0)">
        <g id="Page-5" serif:id="Page 5" transform="matrix(8.33333,0,0,8.33333,4800,0)">
            <rect x="0" y="0" width="128" height="128" style="fill:none;"/>
            <g transform="matrix(0.12,0,0,0.12,-576,0)">
                <g id="Warstwa-1" serif:id="Warstwa 1">
                    <path d="M5432.88,433.566L5534.88,340.055L5432.55,349.245C5430.78,349.404 5429.06,348.653 5427.97,347.253C5426.88,345.853 5426.58,343.996 5427.17,342.324L5524.22,67.407C5525.18,64.696 5528.16,63.273 5530.87,64.23C5533.58,65.186 5535,68.164 5534.05,70.875L5439.69,338.145L5549.28,328.303C5551.51,328.104 5553.61,329.344 5554.52,331.387C5555.42,333.43 5554.92,335.821 5553.27,337.33L5446.27,435.417L5702.33,523.346C5703.91,523.886 5705.09,525.129 5705.59,526.649L5790.48,609.158C5805.18,623.364 5798.92,646.379 5778.25,652.629L5705.84,674.575L5705.84,890.495C5705.84,892.701 5704.44,894.668 5702.37,895.404C5702.37,895.404 5675.54,904.905 5661.76,909.329L5335.54,1014.1C5334.46,1014.45 5333.3,1014.44 5332.23,1014.06C5332.23,1014.06 4999.51,898.297 4999.51,898.297C4989.2,894.708 4965.34,885.236 4965.34,885.236C4963.35,884.448 4962.05,882.53 4962.05,880.395L4962.05,673.728L4889.64,651.783C4868.97,645.543 4862.71,622.518 4877.4,608.321L4963.63,524.504C4964.35,523.807 4965.23,523.345 4966.18,523.144L5218.97,436.361L5116.2,337.24C5114.61,335.706 5114.16,333.336 5115.08,331.327C5116,329.318 5118.08,328.106 5120.28,328.303L5229.65,338.118L5125.1,71.039C5124.05,68.363 5125.38,65.339 5128.05,64.291C5130.73,63.243 5133.75,64.566 5134.8,67.242L5242.42,342.159C5243.07,343.839 5242.82,345.74 5241.73,347.183C5240.65,348.626 5238.9,349.406 5237.1,349.245L5134.07,339.999L5232.23,434.679C5232.27,434.709 5232.3,434.74 5232.33,434.771L5329.55,528.423L5432.77,433.66C5432.81,433.628 5432.84,433.596 5432.88,433.566ZM5339.15,652.589L5339.15,1002L5658.58,899.411C5669.24,895.988 5687.76,889.505 5695.42,886.809L5695.42,677.729L5472.91,745.076C5442.12,754.458 5408.27,744.099 5390.24,720.27L5339.15,652.589ZM5328.73,651.742L5277.65,719.423C5259.62,743.253 5225.77,753.62 5194.98,744.232L4972.47,676.882L4972.47,876.853C4979.31,879.549 4995.09,885.729 5002.93,888.459L5328.73,1001.82L5328.73,651.742ZM4998.11,855.862L5102.6,892.279C5105.31,893.225 5108.28,891.789 5109.23,889.075C5110.18,886.361 5108.74,883.389 5106.03,882.443L5001.54,846.026C4998.83,845.08 4995.86,846.516 4994.91,849.23C4993.97,851.944 4995.4,854.916 4998.11,855.862ZM4998.2,824.477L5107.55,860.519C5110.28,861.419 5113.23,859.933 5114.13,857.203C5115.03,854.473 5113.54,851.526 5110.81,850.626L5001.46,814.584C4998.73,813.684 4995.78,815.17 4994.88,817.9C4993.98,820.631 4995.47,823.578 4998.2,824.477ZM4998.2,792.341L5107.55,828.382C5110.28,829.282 5113.23,827.796 5114.13,825.066C5115.03,822.336 5113.54,819.389 5110.81,818.489L5001.46,782.448C4998.73,781.548 4995.78,783.034 4994.88,785.764C4993.98,788.494 4995.47,791.441 4998.2,792.341ZM5699.16,665.713L5775.23,642.659C5787.69,638.892 5792.1,625.209 5783.24,616.647C5783.24,616.644 5783.23,616.641 5783.23,616.637L5699.18,534.942L5342.64,639.914L5398.55,713.985C5414.09,734.523 5443.34,743.197 5469.88,735.112C5469.88,735.111 5469.88,735.11 5469.88,735.109L5699.07,665.739C5699.1,665.73 5699.13,665.722 5699.16,665.713ZM4968.69,534.114L4884.65,615.8C4875.79,624.362 4880.2,638.051 4892.65,641.812C4892.65,641.812 4892.65,641.813 4892.65,641.813L4968.59,664.825C4968.71,664.857 4968.83,664.893 4968.95,664.933L5198.01,734.266C5224.55,742.359 5253.8,733.676 5269.34,713.143L5325.23,639.1L4968.69,534.114ZM5437.53,443.43L5332.98,539.411C5330.95,541.272 5327.83,541.235 5325.85,539.325L5227.4,444.482L4984.47,527.878L5333.99,630.781L5683.49,527.89L5437.53,443.43Z" style="fill:white;"/>
                </g>
            </g>
        </g>
    </g>
</svg>
