<?xml version="1.0" encoding="UTF-8" standalone="no"?>
<!DOCTYPE svg PUBLIC "-//W3C//DTD SVG 1.1//EN" "http://www.w3.org/Graphics/SVG/1.1/DTD/svg11.dtd">
<svg width="100%" height="100%" viewBox="0 0 1325 546" version="1.1" xmlns="http://www.w3.org/2000/svg" xmlns:xlink="http://www.w3.org/1999/xlink" xml:space="preserve" xmlns:serif="http://www.serif.com/" style="fill-rule:evenodd;clip-rule:evenodd;stroke-linejoin:round;stroke-miterlimit:2;">
    <g transform="matrix(1,0,0,1,-3600,-3882)">
        <g id="Artboard1" transform="matrix(1.24156,0,0,0.511562,-5691.03,3882)">
            <rect x="7483.33" y="0" width="1066.67" height="1066.67" style="fill:none;"/>
            <clipPath id="_clip1">
                <rect x="7483.33" y="0" width="1066.67" height="1066.67"/>
            </clipPath>
            <g clip-path="url(#_clip1)">
                <g transform="matrix(1.04455,0,0,1,-333.388,2.94084)">
                    <g transform="matrix(1.0209,0,0,2.5881,7483.3,-116.249)">
                        <path d="M299.62,164.68L299.56,163.74C299.5,163.12 299.44,162.5 299.36,161.89C298.86,158.179 297.755,154.574 296.09,151.22C293.881,146.748 290.724,142.81 286.84,139.68C281.011,134.961 273.768,132.324 266.27,132.19L262.59,132.19C261.34,132.222 260.094,132.339 258.86,132.54C256.374,132.967 253.977,133.809 251.77,135.03C249.586,136.236 247.52,137.646 245.6,139.24L234.3,148.55L223.1,158C221.23,159.56 219.38,161.15 217.52,162.73L212,167.47C182.36,192.87 153.127,218.733 124.3,245.06C109.887,258.207 95.553,271.44 81.3,284.76L59.89,304.7L49.19,314.64L43.83,319.57L41.15,322L39.81,323.24L39.27,323.72L38.79,324.11C37.627,325.026 36.208,325.56 34.73,325.64C34.007,325.661 33.285,325.57 32.59,325.37L32.33,325.29L32.11,325.21L32.06,325.21L31.89,325.14L31.56,324.98L31.39,324.91L31.25,324.91L31.14,324.85L31.06,324.85C29.971,324.225 29.074,323.311 28.47,322.21C27.919,321.222 27.604,320.12 27.55,318.99L27.55,317.45C27.55,316.88 27.55,316.29 27.62,315.71C27.85,311 28.35,306.19 28.92,301.41C29.49,296.63 30.21,291.82 31,287.03C31.79,282.24 32.66,277.46 33.59,272.69L34.31,269.11L34.48,268.24L34.63,267.6C34.746,267.184 34.89,266.777 35.06,266.38C35.645,264.901 36.699,263.654 38.06,262.83C38.675,262.478 39.356,262.257 40.06,262.18L41.4,262.18C41.799,262.189 42.196,262.226 42.59,262.29C42.957,262.367 43.316,262.481 43.66,262.63C44.07,262.8 44.54,263.03 45.03,263.29L48.22,264.99L61.13,271.86L61.25,271.92C62.448,272.547 63.919,272.35 64.91,271.43L70.74,266.03L70.86,265.91C71.088,265.7 71.283,265.457 71.44,265.19C72.232,263.692 71.722,261.812 70.28,260.92C65.15,257.66 60.02,254.52 54.83,251.42C52.21,249.867 49.58,248.33 46.94,246.81C45.63,246.04 44.3,245.3 42.94,244.54L40.94,243.43L39.94,242.86C39.58,242.66 39.19,242.47 38.81,242.28C37.193,241.481 35.445,240.98 33.65,240.8C33.188,240.759 32.724,240.742 32.26,240.75C31.813,240.75 31.363,240.78 30.91,240.84C29.978,240.947 29.062,241.162 28.18,241.48C27.281,241.806 26.427,242.246 25.64,242.79C24.874,243.327 24.172,243.951 23.55,244.65C22.41,245.966 21.464,247.437 20.74,249.02C20.077,250.442 19.496,251.901 19,253.39C18.75,254.15 18.53,254.88 18.3,255.62C18.07,256.36 17.85,257.09 17.63,257.83C16.75,260.83 15.95,263.76 15.19,266.74C12.19,278.65 9.66,290.65 7.34,302.67C5.02,314.69 2.9,326.74 0.93,338.81L0.2,343.35L0.11,343.92C0.11,344.16 0.05,344.4 0.03,344.63L0.03,347.12C0.03,347.53 0.08,347.95 0.14,348.36C0.937,355.076 5.06,360.959 11.1,364C14.079,365.459 17.377,366.146 20.69,366C22.393,365.965 24.08,365.665 25.69,365.11C27.174,364.543 28.618,363.875 30.01,363.11L30.29,362.97L30.59,362.8L31.15,362.45L31.7,362.08L32.2,361.69C32.51,361.45 32.82,361.22 33.14,360.93L34.01,360.18L37.45,357.18C42.04,353.18 46.66,349.26 51.27,345.31C60.477,337.463 69.72,329.637 79,321.83C88.28,314.023 97.613,306.257 107,298.53C116.333,290.803 125.717,283.107 135.15,275.44C144.583,267.773 154.02,260.15 163.46,252.57C168.187,248.777 172.927,245.003 177.68,241.25L184.82,235.62L192,230L199.17,224.45C201.58,222.63 203.97,220.78 206.39,218.97C208.81,217.16 211.2,215.32 213.64,213.56L217.27,210.89L221,208.3L222.83,207L226.51,204.46L227.43,203.83L227.67,203.67L227.87,203.53L228.18,203.34C230.074,202.29 232.215,201.768 234.38,201.83C234.922,201.831 235.463,201.868 236,201.94C236.534,202.007 237.062,202.114 237.58,202.26C238.628,202.556 239.635,202.98 240.58,203.52C241.062,203.802 241.53,204.109 241.98,204.44L242.32,204.7L242.75,205.04L243.12,205.33L243.44,205.61C243.852,205.974 244.243,206.361 244.61,206.77C244.79,206.98 244.96,207.18 245.12,207.39C245.28,207.6 245.41,207.78 245.54,207.99C246.106,208.869 246.54,209.826 246.83,210.83C246.998,211.389 247.135,211.956 247.24,212.53C247.3,212.82 247.35,213.13 247.4,213.44L247.4,213.94C247.395,214.475 247.362,215.009 247.3,215.54C247.23,216.17 247.14,216.82 247.02,217.54C246.79,218.9 246.5,220.31 246.17,221.72C245.51,224.56 244.74,227.44 243.91,230.31C243.08,233.18 242.21,236.07 241.3,238.95C237.66,250.45 233.62,261.95 229.42,273.3C228.42,276.14 227.3,278.98 226.22,281.8C225.68,283.21 225.14,284.62 224.59,285.98L224.19,286.98L224,287.42C223.94,287.56 223.88,287.7 223.81,287.84C223.55,288.4 223.27,288.96 222.97,289.52C221.723,291.773 220.205,293.865 218.45,295.75C216.869,297.512 214.994,298.987 212.91,300.11C211.204,300.835 209.382,301.248 207.53,301.33C206.9,301.39 206.61,301.4 206.11,301.41C205.61,301.42 205.11,301.41 204.57,301.36C203.47,301.29 202.32,301.18 201.14,301.03C198.79,300.74 196.37,300.34 193.95,299.9C191.53,299.46 189.09,298.97 186.65,298.45C181.76,297.45 176.87,296.29 171.98,295.1C169.54,294.513 167.1,293.907 164.66,293.28C162.23,292.66 159.77,292.03 157.38,291.39L157.29,291.39C155.525,290.924 153.638,291.346 152.24,292.52L129.92,311.16L129.85,311.21C128.571,312.292 127.833,313.885 127.833,315.561C127.833,317.663 128.995,319.601 130.85,320.59C142.417,327.217 154.043,333.693 165.73,340.02C171.62,343.2 177.52,346.33 183.48,349.39C186.48,350.93 189.48,352.39 192.48,353.93C193.98,354.69 195.48,355.41 197,356.15L199.27,357.25L201.55,358.32C203.08,359.04 204.55,359.76 206.15,360.48C207.75,361.2 209.3,361.89 210.92,362.53C214.177,363.863 217.517,364.982 220.92,365.88C224.44,366.813 228.051,367.357 231.69,367.5C235.44,367.604 239.182,367.097 242.77,366C246.434,364.96 249.879,363.266 252.94,361C254.481,359.834 255.895,358.51 257.16,357.05C258.399,355.619 259.507,354.079 260.47,352.45C262.272,349.313 263.721,345.986 264.79,342.53C265.835,339.224 266.709,335.866 267.41,332.47C270.22,319.27 272.79,306.08 275.41,292.88L283.09,253.29C288.217,226.897 293.473,200.54 298.86,174.22C298.855,174.2 298.855,174.18 298.86,174.16L299.69,165.6L299.69,165.09L299.62,164.68Z" style="fill:rgb(166,166,166);fill-rule:nonzero;"/>
                    </g>
                    <g transform="matrix(1.0209,0,0,2.5881,7483.3,-116.249)">
                        <path d="M340.31,290.12C337.243,305.66 344.137,313.427 360.99,313.42L373.9,313.42C381.66,313.42 384.927,316.527 383.7,322.74C382.007,331.293 374.84,335.567 362.2,335.56C351.793,335.56 342.767,334.007 335.12,330.9L332.36,344.9C340.08,347.633 349.143,349 359.55,349C382.37,349 395.51,340.26 398.97,322.78C402.043,307.247 394.61,299.48 376.67,299.48L363.76,299.48C357.093,299.48 354.367,296.373 355.58,290.16C357.193,282 364.913,277.923 378.74,277.93C387.396,277.823 395.99,279.406 404.04,282.59L406.8,268.59C398.624,265.795 390.03,264.416 381.39,264.51C357.383,264.497 343.69,273.033 340.31,290.12Z" style="fill:rgb(166,166,166);fill-rule:nonzero;"/>
                    </g>
                    <g transform="matrix(1.0209,0,0,2.5881,7483.3,-116.249)">
                        <path d="M460.22,265.07L423.34,265.07L406.86,348.38L422.13,348.38L435.9,278.64L456.53,278.64C463.37,278.64 466.117,282.097 464.77,289.01C463.083,297.563 455.083,303.1 440.77,305.62L440.25,319.37C463.95,315.79 477.473,305.517 480.82,288.55C483.907,272.897 477.04,265.07 460.22,265.07Z" style="fill:rgb(166,166,166);fill-rule:nonzero;"/>
                    </g>
                    <g transform="matrix(1.0209,0,0,2.5881,7483.3,-116.249)">
                        <path d="M534.14,264.49C506.56,264.49 489.987,278.607 484.42,306.84C480.08,334.92 491.08,348.96 517.42,348.96C544.58,348.96 560.943,334.92 566.51,306.84C572.09,278.613 561.3,264.497 534.14,264.49ZM550.74,306.49C546.9,325.87 536.68,335.56 520.08,335.56C503.067,335.56 496.48,325.87 500.32,306.49C504.08,287.417 514.47,277.883 531.49,277.89C548.09,277.89 554.507,287.423 550.74,306.49Z" style="fill:rgb(166,166,166);fill-rule:nonzero;"/>
                    </g>
                    <g transform="matrix(1.0209,0,0,2.5881,7483.3,-116.249)">
                        <path d="M626.62,265.07L589.17,265.07L572.69,348.26L588.25,348.26L602,278.64L622.91,278.64C629.75,278.64 632.557,281.71 631.33,287.85C629.577,296.777 621.63,302.493 607.49,305L606.11,312.05L624,348.38L641.8,348.38L622.8,312.38C636.86,307.493 645.06,299.16 647.4,287.38C650.373,272.513 643.447,265.077 626.62,265.07Z" style="fill:rgb(166,166,166);fill-rule:nonzero;"/>
                    </g>
                    <g transform="matrix(1.0209,0,0,2.5881,7483.3,-116.249)">
                        <path d="M718.82,265.07L656.3,265.07L653.65,278.47L677.27,278.47L663.44,348.38L678.71,348.38L692.54,278.47L716.16,278.47L718.82,265.07Z" style="fill:rgb(166,166,166);fill-rule:nonzero;"/>
                    </g>
                    <g transform="matrix(1.0209,0,0,2.5881,7483.3,-116.249)">
                        <path d="M766.06,264.49C738.48,264.49 721.907,278.607 716.34,306.84C712,334.92 723,348.96 749.34,348.96C776.5,348.96 792.867,334.92 798.44,306.84C804.007,278.613 793.213,264.497 766.06,264.49ZM782.66,306.49C778.82,325.87 768.6,335.56 752,335.56C734.993,335.56 728.407,325.87 732.24,306.49C736,287.417 746.39,277.883 763.41,277.89C780.01,277.89 786.427,287.423 782.66,306.49Z" style="fill:rgb(166,166,166);fill-rule:nonzero;"/>
                    </g>
                    <g transform="matrix(1.0209,0,0,2.5881,7483.3,-116.249)">
                        <path d="M883.03,322.57L874.33,265.07L859.64,265.07L826.39,324.9L829.39,265.07L814.46,265.07L811.52,348.38L825.87,348.38L863.1,283.01L872.83,348.38L887.35,348.38L919.33,265.07L903.72,265.07L883.03,322.57Z" style="fill:rgb(166,166,166);fill-rule:nonzero;"/>
                    </g>
                    <g transform="matrix(1.0209,0,0,2.5881,7483.3,-116.249)">
                        <path d="M453.42,152.28L445.31,152.28L396.75,226.37L375.54,153.36L375.23,152.28L366.81,152.28L349.89,237.84L349.74,238.59L358.27,238.59L371.65,170.87L390.51,237.5L390.82,238.59L397.72,238.59L440.9,172.34L427.96,237.84L427.81,238.59L436.35,238.59L453.27,153.02L453.42,152.28Z" style="fill:rgb(166,166,166);fill-rule:nonzero;"/>
                    </g>
                    <g transform="matrix(1.0209,0,0,2.5881,7483.3,-116.249)">
                        <path d="M508.48,152.28L499.29,152.28L443.6,238.59L454.03,238.59L502.18,162.37L511.69,202.38L482.1,202.38L477.66,210.62L513.62,210.62L520.19,238.12L520.31,238.59L530.21,238.59L508.6,152.75L508.48,152.28Z" style="fill:rgb(166,166,166);fill-rule:nonzero;"/>
                    </g>
                    <g transform="matrix(1.0209,0,0,2.5881,7483.3,-116.249)">
                        <path d="M554.64,198.97L581.12,181.81L581.26,181.72L583.06,172.66L583.35,171.21L556.72,188.46L563.73,153.02L563.88,152.28L554.77,152.28L546.24,195.28L536.47,201.59L536.33,201.69L534.54,210.74L534.24,212.19L544.17,205.78L537.8,238.09L537.69,238.59L594.51,238.59L596.15,230.34L548.44,230.34L554.64,198.97Z" style="fill:rgb(166,166,166);fill-rule:nonzero;"/>
                    </g>
                    <g transform="matrix(1.0209,0,0,2.5881,7483.3,-116.249)">
                        <path d="M658.69,152.28L622.87,199.02L606.48,152.69L606.33,152.28L595.9,152.28L616.85,208.08L610.97,237.84L610.82,238.59L619.93,238.59L625.86,208.59L668.59,152.95L669.1,152.28L658.69,152.28Z" style="fill:rgb(166,166,166);fill-rule:nonzero;"/>
                    </g>
                    <g transform="matrix(1.0209,0,0,2.5881,7483.3,-116.249)">
                        <path d="M983.58,265.07L953.85,305.21L938.63,265.07L922.79,265.07L943.71,319.25L937.94,348.38L953.21,348.38L958.97,319.25L1000,265.07L983.58,265.07Z" style="fill:rgb(166,166,166);fill-rule:nonzero;"/>
                    </g>
                </g>
            </g>
        </g>
    </g>
</svg>
