<?xml version="1.0" encoding="UTF-8" standalone="no"?>
<!DOCTYPE svg PUBLIC "-//W3C//DTD SVG 1.1//EN" "http://www.w3.org/Graphics/SVG/1.1/DTD/svg11.dtd">
<svg width="100%" height="100%" viewBox="0 0 1734 546" version="1.1" xmlns="http://www.w3.org/2000/svg" xmlns:xlink="http://www.w3.org/1999/xlink" xml:space="preserve" xmlns:serif="http://www.serif.com/" style="fill-rule:evenodd;clip-rule:evenodd;stroke-linejoin:round;stroke-miterlimit:2;">
    <g transform="matrix(1,0,0,1,-3600,-4563.56)">
        <g id="Artboard1" transform="matrix(1.625,0,0,0.511562,-8560.42,4563.56)">
            <rect x="7483.33" y="0" width="1066.67" height="1066.67" style="fill:none;"/>
            <g transform="matrix(-853.519,1091.69,343.775,2712.04,8406,-102.228)">
                <path d="M0.803,-0.158L0.851,-0.04C0.854,-0.031 0.85,-0.022 0.842,-0.019C0.834,-0.015 0.825,-0.019 0.821,-0.028L0.774,-0.146C0.77,-0.154 0.774,-0.163 0.783,-0.166C0.791,-0.17 0.8,-0.166 0.803,-0.158ZM0.862,-0.181L0.898,-0.093C0.901,-0.085 0.897,-0.075 0.889,-0.072C0.881,-0.069 0.872,-0.073 0.869,-0.081L0.833,-0.17C0.83,-0.178 0.834,-0.187 0.842,-0.19C0.85,-0.194 0.859,-0.19 0.862,-0.181ZM0.922,-0.205L0.969,-0.087C0.972,-0.079 0.968,-0.07 0.96,-0.066C0.952,-0.063 0.943,-0.067 0.94,-0.075L0.892,-0.193C0.889,-0.202 0.893,-0.211 0.901,-0.214C0.909,-0.217 0.918,-0.213 0.922,-0.205ZM0.981,-0.229L0.992,-0.2C0.996,-0.191 0.992,-0.182 0.984,-0.179C0.976,-0.176 0.966,-0.179 0.963,-0.188L0.951,-0.217C0.948,-0.225 0.952,-0.235 0.96,-0.238C0.968,-0.241 0.977,-0.237 0.981,-0.229ZM0.756,-0.104C0.759,-0.096 0.755,-0.087 0.747,-0.084C0.739,-0.08 0.73,-0.084 0.727,-0.092C0.723,-0.101 0.727,-0.11 0.735,-0.113C0.744,-0.116 0.753,-0.112 0.756,-0.104ZM0.197,0.123C0.208,0.127 0.216,0.135 0.22,0.147C0.225,0.157 0.225,0.168 0.22,0.178C0.215,0.189 0.207,0.197 0.194,0.202C0.185,0.206 0.175,0.207 0.164,0.207L0.151,0.175L0.176,0.164L0.18,0.174L0.165,0.18L0.172,0.196L0.173,0.196C0.18,0.195 0.186,0.194 0.19,0.192C0.199,0.189 0.205,0.183 0.209,0.175C0.212,0.167 0.212,0.159 0.209,0.15C0.205,0.142 0.2,0.136 0.192,0.133C0.184,0.13 0.176,0.13 0.167,0.133C0.158,0.137 0.15,0.143 0.143,0.152L0.139,0.141C0.144,0.136 0.148,0.132 0.151,0.13C0.155,0.127 0.159,0.125 0.163,0.123C0.175,0.118 0.186,0.118 0.197,0.123ZM-0.008,0.193L-0.004,0.203L-0.03,0.213L-0.003,0.28L-0.014,0.285L-0.041,0.218L-0.068,0.229L-0.072,0.219L-0.008,0.193ZM0.039,0.174L0.053,0.207L0.096,0.19L0.082,0.157L0.093,0.153L0.124,0.229L0.113,0.233L0.1,0.2L0.057,0.217L0.07,0.251L0.059,0.255L0.028,0.179L0.039,0.174ZM0.287,0.164L0.276,0.168L0.245,0.091L0.256,0.087L0.287,0.164ZM0.349,0.049L0.38,0.126L0.369,0.13L0.356,0.097L0.353,0.098C0.349,0.1 0.347,0.101 0.346,0.103C0.344,0.104 0.343,0.106 0.342,0.109C0.341,0.111 0.34,0.115 0.339,0.119L0.336,0.133L0.336,0.137C0.335,0.137 0.335,0.138 0.335,0.138L0.334,0.145L0.321,0.15L0.323,0.143C0.323,0.14 0.324,0.136 0.325,0.13C0.327,0.122 0.328,0.115 0.329,0.112C0.33,0.108 0.332,0.105 0.334,0.102C0.329,0.102 0.325,0.101 0.321,0.099C0.318,0.097 0.315,0.093 0.313,0.089C0.311,0.082 0.311,0.076 0.314,0.07C0.317,0.065 0.322,0.06 0.33,0.057L0.349,0.049ZM0.342,0.063L0.339,0.065C0.333,0.067 0.33,0.069 0.328,0.07C0.326,0.072 0.324,0.074 0.324,0.077C0.323,0.079 0.324,0.082 0.325,0.084C0.326,0.086 0.327,0.088 0.329,0.09C0.331,0.091 0.333,0.092 0.335,0.092C0.338,0.092 0.342,0.091 0.347,0.089L0.352,0.087L0.342,0.063ZM0.438,0.014L0.469,0.09L0.443,0.1C0.437,0.103 0.432,0.104 0.428,0.103C0.423,0.103 0.419,0.102 0.416,0.1C0.412,0.097 0.41,0.094 0.408,0.09C0.406,0.085 0.406,0.08 0.408,0.076C0.41,0.071 0.414,0.067 0.419,0.063C0.41,0.063 0.404,0.059 0.401,0.052C0.399,0.048 0.399,0.044 0.399,0.04C0.4,0.037 0.402,0.033 0.405,0.03C0.407,0.027 0.412,0.024 0.418,0.022L0.438,0.014ZM0.431,0.028L0.422,0.031C0.413,0.035 0.409,0.041 0.412,0.048C0.414,0.052 0.416,0.054 0.42,0.055C0.423,0.057 0.428,0.056 0.433,0.054L0.441,0.051L0.431,0.028ZM0.445,0.06L0.434,0.065C0.429,0.067 0.425,0.069 0.423,0.071C0.421,0.073 0.419,0.075 0.419,0.077C0.418,0.08 0.418,0.082 0.419,0.085C0.42,0.087 0.422,0.089 0.424,0.09C0.426,0.092 0.428,0.092 0.431,0.093C0.433,0.093 0.438,0.091 0.444,0.089L0.454,0.085L0.445,0.06ZM0.49,-0.007L0.508,0.036C0.51,0.042 0.513,0.046 0.514,0.048C0.516,0.05 0.519,0.052 0.522,0.053C0.527,0.055 0.533,0.054 0.54,0.052C0.544,0.05 0.548,0.047 0.551,0.044C0.553,0.041 0.555,0.038 0.555,0.034C0.556,0.031 0.555,0.026 0.552,0.018L0.534,-0.025L0.545,-0.03L0.563,0.014C0.565,0.02 0.567,0.025 0.567,0.028C0.567,0.031 0.567,0.034 0.567,0.036C0.566,0.039 0.565,0.041 0.564,0.044C0.56,0.051 0.553,0.057 0.543,0.061C0.534,0.065 0.525,0.066 0.516,0.063C0.514,0.062 0.512,0.061 0.51,0.059C0.508,0.058 0.506,0.056 0.504,0.053C0.501,0.051 0.499,0.046 0.497,0.04L0.479,-0.003L0.49,-0.007ZM0.597,-0.05L0.611,-0.017L0.654,-0.035L0.64,-0.068L0.651,-0.072L0.682,0.004L0.671,0.009L0.658,-0.025L0.615,-0.007L0.628,0.026L0.617,0.03L0.586,-0.046L0.597,-0.05ZM0.78,-0.045C0.783,-0.037 0.779,-0.028 0.771,-0.025C0.763,-0.021 0.754,-0.025 0.75,-0.033C0.747,-0.042 0.751,-0.051 0.759,-0.054C0.767,-0.057 0.777,-0.053 0.78,-0.045ZM1.016,-0.14L1.028,-0.111C1.031,-0.103 1.027,-0.093 1.019,-0.09C1.011,-0.087 1.002,-0.091 0.999,-0.099L0.987,-0.129C0.983,-0.137 0.987,-0.146 0.996,-0.149C1.004,-0.153 1.013,-0.149 1.016,-0.14Z" style="fill:rgb(166,166,166);fill-rule:nonzero;"/>
            </g>
        </g>
    </g>
</svg>
