<?xml version="1.0" encoding="UTF-8" standalone="no"?>
<!DOCTYPE svg PUBLIC "-//W3C//DTD SVG 1.1//EN" "http://www.w3.org/Graphics/SVG/1.1/DTD/svg11.dtd">
<svg width="100%" height="100%" viewBox="0 0 1067 1067" version="1.1" xmlns="http://www.w3.org/2000/svg" xmlns:xlink="http://www.w3.org/1999/xlink" xml:space="preserve" xmlns:serif="http://www.serif.com/" style="fill-rule:evenodd;clip-rule:evenodd;stroke-linejoin:round;stroke-miterlimit:2;">
    <g id="Page-1" serif:id="Page 1" transform="matrix(8.33333,0,0,8.33333,0,0)">
        <rect x="0" y="0" width="128" height="128" style="fill:none;"/>
        <g transform="matrix(0.12,0,0,0.12,0,0)">
            <g id="Warstwa-1" serif:id="Warstwa 1">
                <path d="M684.969,240L684.969,199.973C684.969,196.871 687.575,194.39 690.553,194.39C690.553,194.39 748.178,194.39 748.178,194.39C751.279,194.39 753.761,196.871 753.761,199.973L753.761,240L817.975,240L817.975,314.483C842.067,318.769 863.002,332.328 876.95,351.334C891.87,371.639 896.54,397.578 892.301,422.306C886.415,456.294 873.383,543.501 876.79,630.044C881.78,755.635 895.003,860.432 895.003,860.432L895.044,861.084C895.044,902.975 867.059,938.7 828.805,950.458C827.177,954.142 824.999,957.706 822.232,961.155C810.11,976.121 791.491,984.1 770.667,987.872C740.947,993.256 706.723,990.114 682.421,988.49C617.663,984.159 552.831,979.851 384.991,992.238C333.256,996.035 277.741,990.696 228.117,975.01C190.653,963.186 150.884,941.228 138.63,901.568C128.095,867.149 144.188,844.241 164.997,830.52C173.666,824.839 184.291,821.792 196.185,820.402C210.833,818.691 227.479,819.487 244.552,820.425C243.579,816.445 243.044,812.292 243.044,808.007L242.731,589.433L218.03,618.144C204.029,634.375 179.502,635.992 163.676,621.613C163.676,621.613 136.676,597.196 136.679,597.199C120.857,582.911 119.312,557.981 133.219,541.772C162.828,507.326 191.52,471.797 221.872,438.026C228.924,430.149 236.848,422.367 246.918,419.346C254.095,417.186 262.162,417.127 270.417,418.089C281.724,419.408 293.412,422.652 303.31,424.009C323.272,426.814 343.399,428.38 363.612,428.793C402.887,429.618 442.327,425.987 480.874,417.981C490.424,416.025 499.568,418.37 507.995,423.041C519.465,429.4 529.577,440.171 537.404,448.624C541.426,452.96 545.473,457.247 549.561,461.477C547.355,442.504 545.335,427.437 544.012,418.063C542.41,406.735 542.37,395.143 545.113,384.084C554.34,346.773 586.198,318.147 625.125,313.657L625.125,240L684.969,240ZM823.128,924.112C772.398,946.812 746.61,947.21 713.147,943.636C691.199,941.291 665.846,937.15 627.303,936.691C460.675,947.262 341.014,975.492 259.622,971.794C257.824,971.712 256.044,971.615 254.288,971.502C296.446,981.773 341.651,984.974 384.227,981.849C552.889,969.402 618.04,973.744 683.116,978.097C706.714,979.673 739.95,982.851 768.81,977.622C787.039,974.32 803.526,967.7 814.122,954.618C816.385,951.798 818.16,948.875 819.453,945.841L820.07,944.268C822.589,937.835 823.332,931.05 823.128,924.112ZM560.652,659.377C556.581,655.989 552.182,653.905 547.195,654.259C541.135,654.69 534.537,658.501 526.858,666.408C521.03,673.166 515.057,679.772 508.88,686.242L508.881,686.258L507.428,687.772C475.732,720.809 439.432,750.751 403.285,777.84C377.442,797.138 349.905,819.109 318.121,827.692C298.043,833.16 274.637,832.472 251.568,831.285L248.248,831.114L248.226,831.06C233.404,830.237 218.821,829.349 205.545,830.067C192.106,830.794 180.051,833.109 170.719,839.225C153.348,850.679 139.791,869.77 148.586,898.506C148.757,899.058 148.934,899.607 149.117,900.153L150.321,899.551C172.197,943.306 208.069,959.024 260.095,961.388C341.271,965.076 460.621,936.811 626.842,926.282L627.231,926.272C666.322,926.725 692.017,930.902 714.254,933.278C746.605,936.734 771.401,936.174 821.2,913.555L822.582,916.597C821.555,907.303 819.392,897.871 818.018,888.76C812.75,853.397 808.319,817.859 805.56,782.32C804.755,771.934 804.268,760.009 801.017,749.522C798.108,740.136 792.892,731.93 782.477,727.75C769.703,722.618 755.834,726.944 741.995,732.684C726.459,739.127 710.974,747.528 696.964,749.968C663.579,755.679 625.359,748.882 601.996,722.091L601.927,722.004C601.594,721.588 601.26,721.254 600.948,720.864C594.708,713.166 588.642,701.373 582.147,689.609C576.103,678.661 569.699,667.71 562.141,660.748L560.652,659.377ZM832.514,938.093C862.904,925.771 884.498,895.975 884.626,861.393C883.799,854.749 871.225,752.361 866.382,630.456C862.939,543 876.09,454.874 882.036,420.537C885.798,398.591 881.802,375.529 868.553,357.499C853.418,336.875 829.033,323.459 801.586,323.459C801.586,323.459 635.836,323.459 635.836,323.459C597.012,323.459 564.165,350.435 555.224,386.588C552.801,396.359 552.911,406.6 554.326,416.606C555.951,428.115 558.619,448.153 561.396,473.449C564.729,476.789 568.083,480.096 571.465,483.368L571.52,483.422L572.011,483.895L572.183,484.062L572.566,484.431L572.852,484.706L573.131,484.975L573.526,485.354L573.703,485.524L574.208,486.008L574.282,486.079C582.767,494.202 591.434,502.106 600.36,509.757C604.701,513.577 609.113,517.665 612.904,522.049C620.638,530.792 626.253,540.752 626.254,551.322C626.254,551.406 626.253,551.489 626.253,551.572C626.192,558.922 623.512,566.664 616.697,574.568L616.698,574.567L616.697,574.567L616.772,574.366C616.562,574.695 616.31,575.036 616.014,575.384C611.92,580.201 591.45,603.982 591.443,603.99C589.643,606.073 587.678,607.904 585.583,609.482L585.449,609.583L585.419,609.606L585.395,609.623L585.349,609.657L585.295,609.697L585.257,609.725L585.209,609.761L585.163,609.794L585.141,609.81L585.105,609.837C580.793,612.979 575.957,615.069 570.898,616.105C570.992,620.818 571.044,625.5 571.044,630.203C571.12,638.523 571.058,646.704 570.918,654.683C578.481,662.308 585.125,673.375 591.287,684.536C597.456,695.708 603.137,706.956 609.074,714.276L609.085,714.29C609.373,714.649 609.66,714.946 609.946,715.289C630.837,739.245 665.275,744.782 695.21,739.662C708.544,737.345 723.225,729.163 738.024,723.024C754.521,716.181 771.153,711.926 786.384,718.043C800.05,723.531 807.167,734.074 810.988,746.397C814.467,757.618 815.108,770.36 815.969,781.473C818.71,816.769 823.105,852.064 828.335,887.181C830.87,903.941 835.294,921.727 832.514,938.093ZM552.685,479.465C544.906,471.768 537.295,463.822 529.764,455.705C523.738,449.197 516.312,441.135 507.865,435.24C500.303,429.962 491.92,426.351 482.978,428.183C443.678,436.346 403.451,440.049 363.396,439.207C342.772,438.786 322.233,437.186 301.879,434.327C293.631,433.196 284.126,430.752 274.632,429.203C266.002,427.795 257.38,427.075 249.916,429.322C241.656,431.8 235.415,438.517 229.626,444.982C199.318,478.703 170.677,514.174 141.122,548.558C130.859,560.519 131.982,578.922 143.661,589.469C143.661,589.469 170.663,613.887 170.672,613.895C182.17,624.342 199.976,623.125 210.138,611.345L253.107,561.4C253.107,561.4 253.461,807.993 253.461,808C253.461,812.552 254.218,816.915 255.539,821.014C276.36,822.041 297.304,822.53 315.419,817.598C345.957,809.351 372.254,787.989 397.062,769.459C432.192,743.131 467.489,714.084 498.458,682.054L498.277,556.83C498.277,556.83 545.581,599.638 545.573,599.631C551.097,604.609 558.02,606.863 564.828,606.416L565.098,606.397L565.218,606.388C572.124,605.9 578.679,602.828 583.555,597.185C583.555,597.185 602.474,575.207 607.544,569.261L607.544,569.232L608.808,567.766C613.66,562.137 615.793,556.719 615.836,551.485L615.837,551.293C615.829,543.154 611.06,535.687 605.063,528.908C601.542,524.836 597.47,521.091 593.53,517.622C579.424,505.532 565.906,492.771 552.725,479.505L552.685,479.465ZM159.08,669.095L171.906,662.345C183.958,656.014 198.047,666.248 195.754,679.668C195.754,679.668 193.303,693.953 193.303,693.953C192.968,695.909 193.618,697.903 195.03,699.284C195.03,699.284 205.405,709.392 205.408,709.396C215.156,718.912 209.773,735.467 196.294,737.418C196.294,737.418 181.961,739.502 181.975,739.5C180.01,739.791 178.311,741.017 177.433,742.802C177.433,742.802 171.014,755.788 171.016,755.784C164.989,768.01 147.576,768.01 141.551,755.788C141.551,755.788 135.134,742.805 135.131,742.799C134.254,741.017 132.555,739.791 130.605,739.502C130.605,739.502 116.263,737.418 116.265,737.419C102.794,735.466 97.398,718.91 107.16,709.393C107.16,709.393 117.535,699.284 117.528,699.29C118.947,697.903 119.597,695.909 119.262,693.953C119.262,693.953 116.812,679.67 116.812,679.671C114.506,666.253 128.592,656.013 140.66,662.345C140.66,662.345 153.487,669.097 153.485,669.095C155.235,670.015 157.33,670.015 159.08,669.095ZM163.929,678.315L176.754,671.565C181.165,669.248 186.326,672.997 185.486,677.912C185.487,677.909 183.037,692.192 183.037,692.192C182.122,697.52 183.888,702.958 187.753,706.738C187.76,706.745 198.135,716.853 198.135,716.853C201.7,720.333 199.734,726.395 194.799,727.11C194.796,727.11 180.456,729.194 180.456,729.194C175.097,729.988 170.479,733.344 168.089,738.196C168.092,738.19 161.675,751.175 161.675,751.175C159.468,755.651 153.097,755.651 150.891,751.178C150.889,751.173 144.473,738.19 144.473,738.19C142.086,733.344 137.468,729.988 132.116,729.195C132.102,729.193 117.76,727.11 117.76,727.11C112.829,726.395 110.859,720.335 114.431,716.852C114.43,716.853 124.808,706.741 124.808,706.741C128.677,702.958 130.443,697.52 129.528,692.192C129.528,692.192 127.078,677.908 127.078,677.908C126.234,672.992 131.398,669.249 135.816,671.568C135.811,671.565 148.637,678.316 148.637,678.316C153.421,680.83 159.144,680.83 163.926,678.316L163.929,678.315ZM508.859,671.002C512.323,667.209 515.727,663.368 519.082,659.476L519.285,659.254C529.403,648.805 538.479,644.436 546.456,643.869C551.485,643.511 556.195,644.613 560.61,646.882C560.667,641.425 560.679,635.879 560.628,630.251C560.628,625.744 560.579,621.28 560.493,616.797C552.682,616.229 544.969,613.11 538.595,607.365L508.728,580.336L508.859,671.002ZM260.472,230.467L282.51,218.877C300.48,209.437 321.486,224.697 318.058,244.709C318.058,244.709 313.849,269.251 313.849,269.253C313.065,273.819 314.577,278.483 317.899,281.714C317.899,281.714 335.735,299.1 335.737,299.102C350.267,313.282 342.244,337.971 322.149,340.892C322.149,340.892 297.507,344.475 297.503,344.476C292.917,345.138 288.953,348.022 286.903,352.175C286.903,352.175 275.887,374.508 275.886,374.511C266.89,392.724 240.93,392.722 231.946,374.51C231.946,374.51 220.921,352.176 220.92,352.175C218.871,348.022 214.906,345.138 210.318,344.475C210.318,344.475 185.675,340.892 185.675,340.892C165.578,337.971 157.555,313.281 172.097,299.1C172.097,299.1 189.93,281.716 189.931,281.715C193.246,278.486 194.759,273.82 193.974,269.252C193.974,269.252 189.766,244.709 189.766,244.709C186.337,224.697 207.344,209.437 225.314,218.877C225.314,218.877 247.357,230.469 247.352,230.467C251.461,232.622 256.362,232.622 260.472,230.467ZM265.315,239.689L287.357,228.097C297.685,222.671 309.762,231.445 307.791,242.95C307.791,242.949 303.582,267.491 303.582,267.491C302.217,275.439 304.855,283.558 310.635,289.18C310.63,289.175 328.464,306.559 328.464,306.559C336.815,314.709 332.204,328.904 320.65,330.583C320.65,330.583 296.008,334.167 296.008,334.167C288.031,335.32 281.129,340.337 277.562,347.566C277.562,347.567 266.545,369.9 266.545,369.9C261.375,380.368 246.452,380.37 241.287,369.9C241.286,369.899 230.261,347.565 230.261,347.565C226.694,340.337 219.792,335.32 211.811,334.166C211.815,334.167 187.173,330.583 187.173,330.583C175.62,328.904 171.01,314.71 179.369,306.558C179.368,306.559 197.201,289.175 197.201,289.175C202.969,283.556 205.606,275.438 204.241,267.489C204.241,267.491 200.033,242.949 200.033,242.949C198.061,231.445 210.138,222.671 220.469,228.098C220.467,228.097 242.511,239.69 242.511,239.69C249.654,243.436 258.169,243.436 265.31,239.692L265.315,239.689ZM635.542,250.417L635.542,312.975L807.558,312.975L807.558,250.417L635.542,250.417ZM695.386,204.807L695.386,239.998L743.344,239.998L743.344,204.807L695.386,204.807ZM863.942,101.282C860.692,102.992 856.807,102.992 853.558,101.283C853.556,101.281 834.847,91.448 834.847,91.448C819.009,83.123 800.522,96.564 803.532,114.193C803.533,114.198 807.108,135.023 807.108,135.023C807.727,138.64 806.529,142.34 803.898,144.902C803.897,144.904 788.763,159.654 788.763,159.654C775.955,172.144 783.03,193.892 800.726,196.463C800.725,196.462 821.641,199.504 821.641,199.504C825.272,200.033 828.421,202.316 830.046,205.607C830.045,205.605 839.395,224.555 839.395,224.555C847.315,240.603 870.184,240.603 878.103,224.555C878.103,224.555 887.453,205.605 887.453,205.605C889.077,202.316 892.226,200.033 895.858,199.504C895.857,199.504 916.774,196.462 916.774,196.462C934.469,193.892 941.543,172.144 928.735,159.654C928.733,159.653 913.592,144.903 913.592,144.903C910.967,142.341 909.77,138.636 910.384,135.012C910.382,135.023 913.958,114.197 913.958,114.197C916.979,96.566 898.479,83.122 882.649,91.449C882.651,91.448 863.943,101.281 863.943,101.281L863.942,101.282ZM868.789,110.502L887.498,100.668C895.686,96.361 905.253,103.318 903.691,112.437C903.691,112.435 900.115,133.266 900.115,133.266C898.929,140.264 901.248,147.409 906.319,152.36C906.323,152.364 921.465,167.114 921.465,167.114C928.089,173.573 924.43,184.824 915.276,186.154C915.275,186.154 894.358,189.196 894.358,189.196C887.339,190.217 881.254,194.634 878.113,200.993C878.112,200.995 868.762,219.945 868.762,219.945C864.665,228.247 852.834,228.247 848.736,219.945C848.737,219.945 839.386,200.994 839.386,200.994C836.244,194.634 830.16,190.217 823.141,189.196C823.14,189.196 802.223,186.154 802.223,186.154C793.069,184.824 789.41,173.573 796.035,167.112C796.034,167.113 811.168,152.363 811.168,152.363C816.252,147.41 818.572,140.26 817.375,133.263C817.374,133.26 813.799,112.435 813.799,112.435C812.243,103.319 821.806,96.361 830.001,100.669C830.001,100.669 848.709,110.502 848.709,110.502C854.992,113.808 862.507,113.808 868.791,110.501L868.789,110.502Z" style="fill:url(#_Linear1);"/>
            </g>
        </g>
    </g>
    <defs>
        <linearGradient id="_Linear1" x1="0" y1="0" x2="1" y2="0" gradientUnits="userSpaceOnUse" gradientTransform="matrix(-932.561,894.076,-894.076,-932.561,1066.67,88.9199)"><stop offset="0" style="stop-color:rgb(82,191,218);stop-opacity:1"/><stop offset="1" style="stop-color:rgb(95,128,191);stop-opacity:1"/></linearGradient>
    </defs>
</svg>
