<?xml version="1.0" encoding="UTF-8" standalone="no"?>
<!DOCTYPE svg PUBLIC "-//W3C//DTD SVG 1.1//EN" "http://www.w3.org/Graphics/SVG/1.1/DTD/svg11.dtd">
<svg width="100%" height="100%" viewBox="0 0 1067 1067" version="1.1" xmlns="http://www.w3.org/2000/svg" xmlns:xlink="http://www.w3.org/1999/xlink" xml:space="preserve" xmlns:serif="http://www.serif.com/" style="fill-rule:evenodd;clip-rule:evenodd;stroke-linejoin:round;stroke-miterlimit:2;">
    <g transform="matrix(1,0,0,1,-7200,-1217.52)">
        <g id="Page-21" serif:id="Page 21" transform="matrix(8.33333,0,0,8.33333,7200,1217.52)">
            <rect x="0" y="0" width="128" height="128" style="fill:none;"/>
            <g id="Warstwa-1" serif:id="Warstwa 1">
            </g>
            <g transform="matrix(0.12,0,0,0.12,-864,-146.102)">
                <path d="M7721.67,1568.91L7725.68,1507.31L7727.82,1503.33L7876.55,1391.17C7878.94,1389.37 7882.34,1389.85 7884.14,1392.23L7978.1,1516.83C7979.9,1519.22 7979.43,1522.62 7977.04,1524.42L7828.31,1636.58C7827.05,1637.53 7825.44,1637.88 7823.9,1637.55L7761.17,1623.95C7758.4,1631 7754.19,1638.35 7747.81,1644.74C7737.39,1655.2 7721.11,1663.34 7695.53,1662.94C7703.7,1669.38 7711.78,1675.94 7719.91,1682.51C7721.47,1682.26 7723.06,1682.06 7724.69,1681.94C7727.67,1681.7 7730.28,1683.93 7730.51,1686.92C7730.61,1688.17 7730.27,1689.35 7729.63,1690.33C7733.58,1693.49 7737.56,1696.64 7741.57,1699.77C7749.4,1705.88 7757.33,1711.8 7765.35,1717.56C7769.57,1715.94 7774.13,1714.86 7779.07,1714.45C7782.05,1714.2 7784.67,1716.42 7784.92,1719.4C7785.17,1722.38 7782.95,1725 7779.98,1725.25C7778.9,1725.33 7777.86,1725.46 7776.83,1725.63C7789.5,1734.38 7802.4,1742.73 7815.52,1750.78C7819.62,1749.13 7824.06,1748.02 7828.87,1747.6C7831.85,1747.34 7834.48,1749.55 7834.74,1752.53C7835,1755.51 7832.79,1758.14 7829.81,1758.4C7829.33,1758.44 7828.86,1758.49 7828.39,1758.55C7839.45,1765.1 7850.67,1771.47 7862.03,1777.68C7904.53,1800.93 7948.48,1821.84 7993.92,1838.73C8037.04,1854.75 8081.58,1867.42 8123.74,1886.05C8136.48,1891.67 8148.95,1897.89 8161.5,1903.9C8173.68,1909.73 8187.96,1916.24 8199.69,1925.1C8205.08,1929.17 8209.93,1933.73 8213.88,1938.9C8215.03,1940.33 8216.09,1941.89 8217.06,1943.54C8219.32,1947.23 8221.14,1951.21 8222.4,1955.52C8223.24,1958.09 8223.91,1960.6 8224.4,1962.87C8224.6,1963.84 8224.53,1964.8 8224.25,1965.68C8224.59,1969.64 8224.57,1973.64 8224.3,1977.6C8224.03,1981.49 8223.35,1985.38 8222.21,1989.11C8220.59,1994.43 8218.78,1999.77 8216.08,2004.63C8189.83,2051.79 8130.33,2068.36 8081.86,2072.41C8052.68,2074.86 8023.46,2076.7 7994.24,2078.49C7808.27,2089.85 7645.35,2077.19 7434.6,2071.05C7412.81,2070.41 7391.29,2066.08 7369.67,2063.38C7345.96,2060.41 7320.73,2058.48 7299.2,2046.8C7261.08,2026.12 7254.53,1976.31 7264.17,1938.15C7268.25,1921.97 7276.14,1905.78 7289.5,1895.26C7289.26,1894.39 7289.08,1893.48 7288.96,1892.55C7288.55,1889.36 7288.84,1885.83 7288.78,1883.48C7288.15,1859.39 7286.87,1856.28 7289.57,1832.24C7291.14,1818.35 7294.32,1804.73 7299.3,1791.67C7300.35,1788.93 7302.41,1785.55 7304.43,1782.15C7305.98,1779.55 7307.54,1776.96 7308.07,1774.74C7311.85,1758.99 7309.99,1750.07 7312.89,1734.21C7314.93,1723.01 7317.92,1711.12 7322.26,1699.71C7321.83,1699.48 7321.43,1699.19 7321.06,1698.84C7305.31,1683.65 7291.62,1673.84 7282.02,1653.37C7280.42,1649.94 7279.46,1646.11 7279.37,1642.33C7279.27,1638.32 7280.1,1634.28 7281.28,1630.44C7284.8,1619.08 7293.04,1614.71 7302.77,1614.33C7315.04,1613.85 7330.08,1620.63 7338.28,1626.01C7347.37,1631.98 7355.12,1640.78 7359.42,1650.94C7363.69,1648.43 7368.31,1646.36 7373.32,1644.82C7377.73,1643.46 7382.34,1642.61 7386.95,1642.43C7406.4,1641.65 7420.48,1651.38 7431.68,1664.99C7441.97,1677.49 7449.74,1693.32 7457.39,1706.03C7461.41,1712.71 7465.43,1719.4 7469.88,1725.81C7480.84,1741.58 7505.43,1741.61 7519.34,1729.62C7519.64,1729.36 7519.97,1729.14 7520.31,1728.95C7526.08,1723.1 7531.72,1717.01 7535.23,1713.39C7544.75,1703.57 7554.42,1693.9 7563.84,1683.99C7560.32,1675 7561.85,1664.56 7563.86,1655.56C7566.9,1642.02 7576.72,1629.24 7589.22,1621.72C7602.09,1613.98 7617.65,1611.8 7631.5,1619.3C7641.71,1624.84 7651.47,1630.9 7660.94,1637.32C7660.15,1580.26 7714.91,1569.96 7721.67,1568.91ZM7295.56,1904.27C7284.46,1913.31 7278.12,1927.14 7274.67,1940.81C7266.15,1974.55 7270.66,2018.99 7304.36,2037.28C7324.71,2048.31 7348.62,2049.82 7371.01,2052.62C7392.3,2055.29 7413.47,2059.59 7434.91,2060.22C7645.3,2066.35 7807.93,2079.02 7993.58,2067.67C8022.72,2065.89 8051.86,2064.05 8080.95,2061.62C8126.16,2057.84 8182.13,2043.34 8206.61,1999.37C8208.94,1995.17 8210.45,1990.55 8211.85,1985.95C8212.75,1983.01 8213.28,1979.93 8213.49,1976.86C8213.77,1972.82 8213.75,1968.73 8213.26,1964.7C8212.96,1962.3 8212.46,1960.02 8211.77,1957.84C8210.96,1955.48 8209.97,1953.09 8208.77,1950.84C8207.78,1949.03 8206.65,1947.31 8205.41,1945.66C8205.32,1945.55 8205.23,1945.44 8205.14,1945.33C8203.33,1943.17 8201.26,1941.43 8198.75,1940.79C8196.32,1940.17 8193.58,1940.68 8190.44,1942.43C8182,1947.12 8180.25,1955.22 8179.1,1963.69C8177.61,1974.64 8177.12,1986.28 8171.28,1995.35C8164.13,2006.45 8149.35,2012.44 8137.11,2015.13C8101.21,2023.03 8063.1,2024.65 8026.49,2025.21C7910.12,2026.97 7791.5,2023.7 7676.71,2002.52C7617.99,1991.68 7561.67,1971.59 7502.39,1963.08C7484.28,1960.48 7465.98,1958.54 7447.72,1956.31C7447.26,1956.49 7446.78,1956.61 7446.26,1956.66C7444.91,1956.79 7443.63,1956.41 7442.6,1955.68C7410.91,1951.71 7379.42,1946.62 7349.3,1935.46C7330.24,1928.39 7309.91,1919.33 7295.56,1904.27ZM7814.92,1763.1C7809.32,1766.34 7804.67,1770.93 7800.8,1776.05C7812.25,1783.6 7820.53,1788.84 7823.85,1789.8C7832.12,1792.19 7840.33,1796.91 7845.48,1802.73C7849.52,1807.29 7851.74,1812.55 7851.44,1817.97C7851.13,1823.56 7848.17,1829.64 7840.6,1835.33C7743.8,1908.09 7710.63,1977.94 7703.23,1996.11C7809.64,2013.35 7918.95,2016 8026.33,2014.37C8062.22,2013.83 8099.59,2012.3 8134.78,2004.55C8144.47,2002.42 8156.51,1998.27 8162.17,1989.48C8167.18,1981.71 8167.09,1971.62 8168.37,1962.24C8169.98,1950.37 8173.35,1939.53 8185.18,1932.96C8186.62,1932.16 8188.02,1931.52 8189.38,1931.03C8179.03,1923.98 8167.12,1918.6 8156.82,1913.67C8144.37,1907.7 8132,1901.54 8119.37,1895.96C8077.4,1877.42 8033.07,1864.83 7990.15,1848.88C7944.22,1831.81 7899.79,1810.69 7856.83,1787.19C7842.63,1779.42 7828.66,1771.42 7814.92,1763.1ZM7310.19,1947.78C7310.19,1947.78 7287.39,1974.88 7310.17,2002.45C7312.07,2004.76 7315.49,2005.08 7317.79,2003.18C7320.1,2001.27 7320.42,1997.86 7318.52,1995.55C7301.52,1974.98 7318.49,1954.75 7318.49,1954.75C7320.41,1952.46 7320.11,1949.04 7317.83,1947.12C7315.54,1945.2 7312.12,1945.49 7310.19,1947.78ZM7571.74,1691.4C7562.28,1701.36 7552.57,1711.07 7543.01,1720.93C7536.61,1727.53 7523.3,1742.05 7514.58,1749.19C7483.83,1774.33 7438.55,1786.2 7400.18,1773.48C7380.39,1766.92 7360.07,1752.38 7351.89,1732.32C7347.6,1721.81 7347.35,1710.82 7348.44,1699.78C7349.42,1689.88 7351.49,1679.95 7352.1,1670.39C7347.41,1675.24 7343.42,1680.84 7340.02,1686.86C7331.42,1702.05 7326.5,1719.96 7323.54,1736.16C7320.82,1751.09 7322.2,1759.95 7319.35,1773.92C7328.28,1780.38 7366.85,1809.2 7399.94,1848.14C7424.33,1876.84 7445.62,1911.02 7450.55,1945.79C7468.38,1947.93 7486.24,1949.81 7503.93,1952.35C7563.36,1960.88 7619.81,1981 7678.68,1991.86C7683.21,1992.7 7687.74,1993.51 7692.29,1994.29C7698.34,1978.57 7731.09,1904.09 7834.09,1826.67C7838.29,1823.51 7840.45,1820.48 7840.62,1817.37C7840.77,1814.68 7839.38,1812.18 7837.37,1809.91C7833.45,1805.48 7827.12,1802.03 7820.83,1800.2C7817.51,1799.24 7809.61,1794.71 7798.83,1787.71C7797.57,1786.89 7796.26,1786.04 7794.92,1785.15C7785.64,1801.89 7782.69,1819.88 7782.69,1819.88C7782.2,1822.83 7779.41,1824.83 7776.46,1824.35C7773.51,1823.86 7771.51,1821.07 7772,1818.12C7772,1818.12 7775.34,1797.8 7785.88,1779.14C7773.71,1770.97 7759.29,1761.07 7744.09,1750.72C7733.71,1767.86 7730.45,1786.91 7730.45,1786.91C7729.94,1789.86 7727.14,1791.84 7724.19,1791.34C7721.25,1790.83 7719.27,1788.03 7719.77,1785.09C7719.77,1785.09 7723.44,1763.7 7735.12,1744.62C7723.83,1736.97 7712.29,1729.22 7701.07,1721.88C7697.2,1719.34 7693.37,1716.85 7689.59,1714.44C7689.39,1714.72 7689.19,1715 7688.98,1715.28C7676.34,1733.04 7672.44,1754.31 7672.44,1754.31C7671.9,1757.25 7669.07,1759.2 7666.13,1758.66C7663.19,1758.13 7661.24,1755.3 7661.78,1752.36C7661.78,1752.36 7666.11,1728.73 7680.16,1709C7680.25,1708.87 7680.34,1708.75 7680.43,1708.63C7668.15,1700.94 7656.82,1694.25 7647.35,1689.36C7642.24,1686.73 7637.75,1684.6 7634.01,1683.21C7621.28,1704.64 7617.3,1728.86 7617.3,1728.86C7616.81,1731.81 7614.03,1733.81 7611.07,1733.32C7608.12,1732.83 7606.12,1730.05 7606.61,1727.1C7606.61,1727.1 7610.51,1703.42 7622.73,1681.14C7597.49,1679.71 7589.13,1682.45 7573.94,1690.75C7573.24,1691.14 7572.49,1691.35 7571.74,1691.4ZM7315.54,1784.56C7315.33,1784.95 7315.11,1785.35 7314.88,1785.74C7312.9,1789.2 7310.49,1792.73 7309.43,1795.52C7304.77,1807.74 7301.8,1820.47 7300.34,1833.45C7297.72,1856.79 7299,1859.81 7299.61,1883.19C7299.66,1884.99 7299.45,1887.53 7299.6,1890.01C7299.67,1891.25 7299.6,1892.54 7300.32,1893.32L7300.51,1893.54C7313.72,1909.47 7334.16,1918.3 7353.07,1925.3C7380.96,1935.64 7410.05,1940.63 7439.37,1944.41C7433.99,1912.55 7414.06,1881.48 7391.69,1855.16C7361.84,1820.04 7327.43,1793.35 7315.54,1784.56ZM7764.2,1730.03C7758.78,1733.04 7754.2,1737.2 7750.33,1741.87C7765.4,1752.13 7779.69,1761.94 7791.77,1770.05C7795.46,1765.09 7799.77,1760.55 7804.75,1756.86C7790.99,1748.3 7777.47,1739.38 7764.2,1730.03ZM7496.66,1748.8C7482.88,1749.1 7469.11,1743.69 7460.98,1731.99C7456.4,1725.39 7452.25,1718.5 7448.11,1711.62C7440.7,1699.33 7433.26,1683.96 7423.31,1671.87C7414.27,1660.88 7403.09,1652.62 7387.39,1653.25C7383.7,1653.4 7380.03,1654.09 7376.51,1655.17C7371.38,1656.75 7366.73,1658.98 7362.52,1661.73C7362.97,1664.6 7363.12,1667.54 7362.95,1670.5C7362.37,1680.36 7360.23,1690.62 7359.22,1700.85C7358.31,1710.13 7358.31,1719.39 7361.92,1728.22C7368.94,1745.42 7386.62,1757.58 7403.59,1763.2C7434.17,1773.34 7469.54,1766.11 7496.66,1748.8ZM7717.15,1694.18C7709,1696.41 7702.28,1700.78 7696.75,1706.16C7711.19,1715.43 7726.49,1725.69 7741.34,1735.76C7745.16,1731.02 7749.58,1726.7 7754.67,1723.2C7748.02,1718.37 7741.43,1713.4 7734.9,1708.31C7728.92,1703.64 7723.02,1698.92 7717.15,1694.18ZM7666.42,1654.38C7655.44,1657.91 7646.85,1665.38 7640.11,1674.16C7650.9,1678.58 7665.74,1686.78 7682.36,1697.07C7684.02,1698.1 7685.7,1699.14 7687.39,1700.21C7692.9,1694.44 7699.47,1689.49 7707.24,1686.17C7696.72,1677.66 7686.22,1669.2 7675.48,1661.08C7675.09,1661.02 7674.71,1660.96 7674.32,1660.89C7672.18,1660.53 7670.54,1658.96 7670,1656.99C7668.81,1656.12 7667.61,1655.25 7666.42,1654.38ZM7350.34,1657.36C7347.19,1648.24 7340.33,1640.31 7332.34,1635.07C7326.63,1631.32 7317,1626.63 7308.02,1625.42C7300.91,1624.46 7294.07,1625.75 7291.63,1633.65C7290.79,1636.36 7290.13,1639.21 7290.2,1642.06C7290.26,1644.36 7290.86,1646.69 7291.83,1648.77C7300.42,1667.09 7312.76,1676.07 7326.72,1689.26C7332.55,1676.99 7340.23,1665.8 7350.34,1657.36ZM7655.88,1646.96C7646.39,1640.49 7636.6,1634.38 7626.34,1628.83C7616,1623.23 7604.41,1625.22 7594.8,1631C7584.82,1637.01 7576.86,1647.12 7574.44,1657.93C7572.96,1664.5 7571.26,1672.12 7573.42,1678.75C7588.45,1670.99 7598.78,1668.6 7627.72,1670.6C7628.17,1670.63 7628.66,1670.68 7629.17,1670.76C7636.07,1660.96 7644.86,1652.3 7655.88,1646.96ZM7720.94,1580.04C7709.81,1582.31 7668.63,1593.95 7671.98,1641.99C7673.13,1641.82 7674.3,1641.68 7675.49,1641.58C7678.47,1641.32 7681.09,1643.53 7681.35,1646.51C7681.49,1648.15 7680.88,1649.69 7679.8,1650.79C7710.75,1655.23 7729.23,1648.04 7740.14,1637.09C7744.89,1632.33 7748.2,1626.92 7750.49,1621.63L7723.25,1615.73C7720.62,1615.16 7718.82,1612.76 7718.99,1610.08L7720.94,1580.04ZM7764.4,1613.57L7823.77,1626.44L7966.19,1519.03L7878.75,1403.08L7736.33,1510.49L7730.1,1606.13L7753.9,1611.29C7755.97,1602.52 7755.66,1595.82 7755.66,1595.82L7755.66,1595.82C7755.53,1592.83 7757.84,1590.3 7760.83,1590.17C7763.82,1590.03 7766.35,1592.35 7766.48,1595.34C7766.48,1595.34 7766.83,1603.2 7764.4,1613.57ZM7907.08,1535.53L7846.64,1455.38C7844.84,1452.99 7841.44,1452.52 7839.05,1454.32C7836.66,1456.12 7836.19,1459.52 7837.99,1461.9L7898.43,1542.05C7900.23,1544.44 7903.63,1544.91 7906.02,1543.11C7908.4,1541.31 7908.88,1537.91 7907.08,1535.53ZM7934.14,1515.12L7873.7,1434.97C7871.9,1432.59 7868.5,1432.11 7866.11,1433.91C7863.72,1435.71 7863.25,1439.11 7865.05,1441.5L7925.49,1521.64C7927.29,1524.03 7930.69,1524.51 7933.08,1522.7C7935.46,1520.9 7935.94,1517.51 7934.14,1515.12Z" style="fill:white;"/>
            </g>
        </g>
    </g>
</svg>
