<?xml version="1.0" encoding="UTF-8" standalone="no"?>
<!DOCTYPE svg PUBLIC "-//W3C//DTD SVG 1.1//EN" "http://www.w3.org/Graphics/SVG/1.1/DTD/svg11.dtd">
<svg width="100%" height="100%" viewBox="0 0 1067 1067" version="1.1" xmlns="http://www.w3.org/2000/svg" xmlns:xlink="http://www.w3.org/1999/xlink" xml:space="preserve" xmlns:serif="http://www.serif.com/" style="fill-rule:evenodd;clip-rule:evenodd;stroke-linejoin:round;stroke-miterlimit:2;">
    <g transform="matrix(1,0,0,1,-2400,-3600)">
        <g id="Page-21" serif:id="Page 21" transform="matrix(8.33333,0,0,8.33333,2400,3600)">
            <rect x="0" y="0" width="128" height="128" style="fill:none;"/>
            <g id="Warstwa-1" serif:id="Warstwa 1">
                <g transform="matrix(1,0,0,1,12.8291,62.8728)">
                    <path d="M-0.625,24.77C-0.677,27.195 0.592,29.567 2.871,30.815L21.431,40.964C24.691,42.741 28.776,41.545 30.554,38.291C30.554,38.291 37.107,26.307 37.107,26.307L42.496,16.444C42.496,16.444 49.298,4.009 49.298,4.009C49.299,4.008 49.299,4.008 49.299,4.007C50.295,2.174 50.39,-0.013 49.549,-1.924L44.418,-13.583C43.223,-16.29 40.4,-17.897 37.462,-17.544C37.462,-17.544 23.97,-15.918 23.97,-15.918C21.813,-15.66 19.913,-14.373 18.875,-12.468C18.876,-12.469 7.502,8.34 7.502,8.34C7.502,8.34 5.019,12.879 5.019,12.879C5.019,12.878 4.473,13.873 4.473,13.873L2.413,17.641L2.335,17.784C2.336,17.783 0.199,21.692 0.199,21.692C-0.337,22.67 -0.602,23.729 -0.625,24.769L-0.625,24.77ZM0.625,24.797C0.583,26.771 1.616,28.703 3.471,29.719C3.471,29.719 22.03,39.867 22.029,39.866C24.683,41.313 28.01,40.341 29.458,37.691C29.458,37.691 29.458,37.691 29.458,37.691C29.458,37.691 36.011,25.707 36.011,25.707L41.4,15.844C41.4,15.844 48.202,3.409 48.201,3.411C49.011,1.918 49.09,0.137 48.405,-1.42C48.405,-1.42 43.274,-13.079 43.274,-13.079C42.301,-15.282 40.004,-16.591 37.612,-16.302C37.612,-16.302 24.12,-14.676 24.119,-14.676C22.363,-14.466 20.817,-13.421 19.973,-11.87L8.598,8.94L6.115,13.48C6.115,13.48 5.569,14.475 5.569,14.474C5.569,14.474 3.51,18.24 3.511,18.239L3.433,18.382L1.295,22.292C0.859,23.088 0.644,23.951 0.625,24.797Z" style="fill:white;"/>
                </g>
                <g transform="matrix(0.305683,0.952133,0.952133,-0.305683,49.5535,51.875)">
                    <path d="M1.275,-1.555C2.36,-1.555 3.241,-0.675 3.241,0.41C3.241,1.494 2.36,2.375 1.275,2.375C0.19,2.375 -0.69,1.494 -0.69,0.41C-0.69,-0.675 0.19,-1.555 1.275,-1.555ZM1.275,-0.305C0.88,-0.305 0.56,0.015 0.56,0.41C0.56,0.805 0.88,1.125 1.275,1.125C1.67,1.125 1.991,0.805 1.991,0.41C1.991,0.015 1.67,-0.305 1.275,-0.305Z" style="fill:white;"/>
                </g>
                <g transform="matrix(0.306086,0.952004,0.952004,-0.306086,35.2761,63.9288)">
                    <path d="M2.61,-2.528C4.468,-2.528 5.977,-1.019 5.977,0.839C5.977,2.697 4.468,4.205 2.61,4.205C0.753,4.205 -0.756,2.697 -0.756,0.839C-0.756,-1.019 0.753,-2.528 2.61,-2.528ZM2.61,-1.278C1.442,-1.278 0.494,-0.329 0.494,0.839C0.494,2.007 1.442,2.955 2.61,2.955C3.779,2.955 4.727,2.007 4.727,0.839C4.727,-0.329 3.779,-1.278 2.61,-1.278Z" style="fill:white;"/>
                </g>
                <g transform="matrix(0.305867,0.952074,0.952074,-0.305867,35.9796,82.0179)">
                    <path d="M2.61,-2.529C4.468,-2.529 5.976,-1.02 5.976,0.838C5.976,2.696 4.468,4.205 2.61,4.205C0.753,4.205 -0.756,2.696 -0.756,0.838C-0.756,-1.02 0.753,-2.529 2.61,-2.529ZM2.61,-1.279C1.443,-1.279 0.494,-0.33 0.494,0.838C0.494,2.006 1.443,2.955 2.61,2.955C3.778,2.955 4.726,2.006 4.726,0.838C4.726,-0.33 3.778,-1.279 2.61,-1.279Z" style="fill:white;"/>
                </g>
                <g transform="matrix(1,0,0,1,31.3906,106.48)">
                    <path d="M66.352,5.917L72.953,-3.994L72.98,-4.035C73,-4.065 73.023,-4.093 73.049,-4.119C73.669,-4.761 74.015,-5.655 73.921,-6.616C73.921,-6.616 66.87,-73.417 66.871,-73.416C66.729,-74.736 65.613,-75.741 64.282,-75.741L17.638,-75.741C16.47,-75.741 15.323,-75.464 14.284,-74.929C10.685,-73.072 2.481,-68.83 0.308,-67.598C0.008,-67.428 -0.374,-67.534 -0.544,-67.834C-0.714,-68.134 -0.608,-68.516 -0.308,-68.686C1.871,-69.922 10.101,-74.178 13.712,-76.04C14.927,-76.666 16.27,-76.991 17.638,-76.991C17.638,-76.991 64.282,-76.991 64.282,-76.991C66.251,-76.991 67.903,-75.504 68.113,-73.55C68.113,-73.549 68.114,-73.549 68.114,-73.549C68.114,-73.549 75.165,-6.748 75.165,-6.743C75.295,-5.415 74.828,-4.186 73.988,-3.294L66.086,8.57C65.911,8.834 65.566,8.925 65.284,8.782C65.001,8.638 64.87,8.307 64.979,8.01C65.149,7.543 65.212,7.044 65.159,6.516L64.201,-2.486C64.201,-2.486 57.529,-65.675 57.529,-65.679C57.385,-67.134 56.155,-68.238 54.688,-68.238L11.922,-68.238C11.577,-68.238 11.297,-68.518 11.297,-68.863C11.297,-69.208 11.577,-69.488 11.922,-69.488C11.922,-69.488 54.688,-69.488 54.688,-69.488C56.799,-69.488 58.565,-67.896 58.773,-65.807C58.773,-65.807 65.445,-2.618 65.444,-2.618L66.352,5.917Z" style="fill:white;"/>
                </g>
                <g transform="matrix(-0.793936,0.608002,0.608002,0.793936,93.276,38.1531)">
                    <path d="M-8.023,-3.344L0.922,-3.344C1.266,-3.344 1.547,-3.064 1.547,-2.719C1.547,-2.374 1.266,-2.094 0.922,-2.094L-8.023,-2.094C-8.367,-2.094 -8.648,-2.374 -8.648,-2.719C-8.648,-3.064 -8.367,-3.344 -8.023,-3.344Z" style="fill:white;"/>
                </g>
                <g transform="matrix(1,0,0,1,49.0996,13.3777)">
                    <path d="M-0.625,21.091C-0.627,21.074 -0.628,21.055 -0.629,21.035C-0.63,20.982 -0.632,20.685 -0.634,19.851C-0.64,17.433 -0.853,14.816 -0.717,12.268C-0.576,9.622 -0.059,7.052 1.392,4.829C5.652,-1.699 16.196,-1.564 20.465,4.925C22.54,8.079 22.106,11.504 22.106,15.062C22.105,21.199 22.106,16.059 22.106,22.197L22.106,24.242C22.106,24.587 21.826,24.867 21.481,24.867C21.136,24.867 20.856,24.587 20.856,24.242L20.856,22.197C20.856,16.059 20.855,21.199 20.856,15.062C20.856,11.75 21.352,8.547 19.421,5.612C15.62,-0.166 6.232,-0.301 2.438,5.513C1.11,7.548 0.66,9.91 0.531,12.335C0.396,14.859 0.611,17.452 0.616,19.848L0.618,20.516L0.622,20.551C0.623,20.553 0.624,20.572 0.625,20.61C0.625,20.692 0.625,21.28 0.625,23.242C0.625,23.587 0.345,23.867 0,23.867C-0.345,23.867 -0.625,23.587 -0.625,23.242L-0.625,21.091Z" style="fill:white;"/>
                </g>
                <g transform="matrix(1,0,0,1,61.251,5.8728)">
                    <path d="M-0.625,21.088C-0.627,21.071 -0.628,21.052 -0.628,21.033C-0.629,20.98 -0.631,20.684 -0.633,19.852C-0.639,17.433 -0.853,14.816 -0.717,12.268C-0.576,9.622 -0.059,7.052 1.392,4.829C5.652,-1.699 16.196,-1.564 20.466,4.926C22.54,8.079 22.106,11.504 22.106,15.062C22.105,21.199 22.106,16.059 22.106,22.197L22.106,24.242C22.106,24.587 21.826,24.867 21.481,24.867C21.136,24.867 20.856,24.587 20.856,24.242L20.856,22.197C20.856,16.059 20.855,21.199 20.856,15.062C20.856,11.75 21.352,8.547 19.422,5.613C15.62,-0.166 6.232,-0.301 2.438,5.513C1.11,7.548 0.66,9.91 0.531,12.335C0.397,14.859 0.611,17.452 0.617,19.849L0.619,20.522L0.623,20.556C0.623,20.559 0.625,20.576 0.625,20.61C0.625,20.692 0.625,21.28 0.625,23.242C0.625,23.587 0.345,23.867 0,23.867C-0.345,23.867 -0.625,23.587 -0.625,23.242L-0.625,21.088Z" style="fill:white;"/>
                </g>
                <g transform="matrix(1,0,0,1,25.7861,55.7838)">
                    <path d="M69.653,60.11L69.657,60.105C69.668,60.094 69.679,60.083 69.69,60.073C70.099,59.704 70.4,59.228 70.583,58.71C70.754,58.244 70.819,57.74 70.763,57.209L69.804,48.209C69.804,48.209 63.139,-14.975 63.139,-14.978C62.991,-16.439 61.76,-17.539 60.299,-17.539L7.805,-17.539C6.18,-17.539 4.818,-16.292 4.695,-14.668L3.505,1.525C3.48,1.869 3.18,2.128 2.836,2.102C2.492,2.077 2.233,1.777 2.259,1.433C2.259,1.433 3.449,-14.76 3.449,-14.761C3.62,-17.038 5.528,-18.789 7.805,-18.789L60.299,-18.789C62.4,-18.789 64.169,-17.205 64.383,-15.107C64.383,-15.107 71.048,48.077 71.047,48.077C71.047,48.077 72.005,57.077 72.006,57.077C72.083,57.808 71.992,58.5 71.759,59.133C71.513,59.83 71.101,60.477 70.547,60.983L70.539,60.992C70.528,61.003 70.518,61.013 70.507,61.023C69.673,61.778 68.58,62.245 67.369,62.245L2.158,62.245C-0.411,62.245 -2.412,60.017 -2.137,57.461L-0.621,43.389C-0.584,43.046 -0.276,42.798 0.067,42.835C0.41,42.872 0.658,43.18 0.621,43.523C0.621,43.523 -0.895,57.595 -0.895,57.595C-1.09,59.411 0.333,60.995 2.158,60.995L67.369,60.995C68.249,60.995 69.044,60.655 69.653,60.11Z" style="fill:white;"/>
                </g>
                <g transform="matrix(-0.550474,0.834852,0.834852,0.550474,55.7009,47.5856)">
                    <path d="M-11.702,-1.197C-11.647,-0.856 -11.326,-0.624 -10.985,-0.679C-10.645,-0.734 -10.413,-1.055 -10.468,-1.396C-10.468,-1.396 -10.935,-4.095 -9.106,-5.438C-8.148,-6.142 -6.592,-6.439 -4.097,-5.911C-1.393,-5.34 2.331,-3.807 7.465,-0.759C7.762,-0.583 8.146,-0.681 8.322,-0.977C8.498,-1.274 8.4,-1.658 8.103,-1.834C1.724,-5.621 -2.567,-7.117 -5.437,-7.382C-7.518,-7.575 -8.91,-7.133 -9.846,-6.446C-12.233,-4.692 -11.702,-1.197 -11.702,-1.197ZM-11.702,-1.197C-11.702,-1.197 -11.702,-1.197 -11.702,-1.197Z" style="fill:white;"/>
                </g>
                <g transform="matrix(0.917241,-0.398332,-0.398332,-0.917241,27.7702,85.7034)">
                    <path d="M-1.243,5.356L28.788,5.356C29.133,5.356 29.413,5.636 29.413,5.981C29.413,6.326 29.133,6.606 28.788,6.606L-1.243,6.606C-1.588,6.606 -1.868,6.326 -1.868,5.981C-1.868,5.636 -1.588,5.356 -1.243,5.356Z" style="fill:white;"/>
                </g>
            </g>
        </g>
    </g>
</svg>
